<?xml version="1.0" encoding="utf-8"?><!-- Generator: Adobe Illustrator 26.0.1, SVG Export Plug-In . SVG Version: 6.00 Build 0)  -->
<svg style="enable-background:new 0 0 512 512;" id="Layer_1" version="1.1" viewBox="0 0 512 512"
    x="0px" xmlns="http://www.w3.org/2000/svg" y="0px" xml:space="preserve">
<style type="text/css">
	.st0{display:none;fill:none;stroke:#00A651;stroke-width:15;stroke-miterlimit:10;}
	.st1{fill:#018544;}
</style>
    <path class="st0" d="M362.87,432.32H56.49c-15.23,0-27.57-12.35-27.57-27.57V64.66c0-15.23,12.35-27.57,27.57-27.57h306.38
	c15.23,0,27.57,12.35,27.57,27.57v340.09C390.45,419.97,378.1,432.32,362.87,432.32z" />
    <g>
	<g>
		<path class="st1" d="M262.75,477.21H37.82c-12.92,0-23.44-10.51-23.44-23.44V26.16c0-12.92,10.51-23.44,23.44-23.44h328.96
			c12.92,0,23.44,10.51,23.44,23.44v135.33h-18.03V26.16c0-2.93-2.48-5.41-5.41-5.41H37.82c-2.93,0-5.41,2.48-5.41,5.41v427.61
			c0,2.93,2.48,5.41,5.41,5.41h224.93V477.21z" />
	</g>
        <g>
		<path class="st1" d="M474.18,509.28H280.86c-12.92,0-23.44-10.51-23.44-23.44V179.59c0-12.92,10.51-23.44,23.44-23.44h193.32
			c12.92,0,23.44,10.51,23.44,23.44v306.25C497.62,498.76,487.1,509.28,474.18,509.28z M280.86,174.18c-2.93,0-5.41,2.48-5.41,5.41
			v306.25c0,2.93,2.48,5.41,5.41,5.41h193.32c2.93,0,5.41-2.48,5.41-5.41V179.59c0-2.93-2.48-5.41-5.41-5.41H280.86z" />
	</g>
        <g>
		<rect class="st1" height="18.03" width="222.17" x="260.3" y="281.97" />
	</g>
        <g>
		<rect class="st1" height="18.03" width="222.17" x="270.12" y="383.23" />
	</g>
        <g>
		<rect class="st1" height="222.17" width="18.03" x="368.5" y="284.85" />
	</g>
        <g>
		<path class="st1" d="M458.72,350.63h-51.94c-4.98,0-9.01-4.04-9.01-9.01l0,0c0-4.98,4.04-9.01,9.01-9.01h51.94
			c4.98,0,9.01,4.04,9.01,9.01l0,0C467.74,346.59,463.7,350.63,458.72,350.63z" />
	</g>
        <g>
		<rect class="st1" height="18.03" width="138.59" x="331.55" y="251.78" />
	</g>
        <g>
		<path class="st1" d="M178.68,277.09H58.13c-4.98,0-9.01-4.04-9.01-9.01v0c0-4.98,4.04-9.01,9.01-9.01h120.56
			c4.98,0,9.01,4.04,9.01,9.01v0C187.7,273.06,183.66,277.09,178.68,277.09z" />
	</g>
        <g>
		<g>
			<path class="st1" d="M347.02,350.63h-51.94c-4.98,0-9.01-4.04-9.01-9.01l0,0c0-4.98,4.04-9.01,9.01-9.01h51.94
				c4.98,0,9.01,4.04,9.01,9.01l0,0C356.04,346.59,352,350.63,347.02,350.63z" />
		</g>
            <g>
			<g>
				<path class="st1" d="M321.05,376.6L321.05,376.6c-4.98,0-9.01-4.04-9.01-9.01v-51.94c0-4.98,4.04-9.01,9.01-9.01l0,0
					c4.98,0,9.01,4.04,9.01,9.01v51.94C330.07,372.56,326.03,376.6,321.05,376.6z" />
			</g>
		</g>
	</g>
        <g>
		<g>
			<path class="st1" d="M296.32,471.91L296.32,471.91c-3.52-3.52-3.52-9.23,0-12.75l36.72-36.72c3.52-3.52,9.23-3.52,12.75,0v0
				c3.52,3.52,3.52,9.23,0,12.75l-36.72,36.72C305.55,475.43,299.84,475.43,296.32,471.91z" />
		</g>
            <g>
			<path class="st1" d="M333.04,471.91l-36.72-36.72c-3.52-3.52-3.52-9.23,0-12.75l0,0c3.52-3.52,9.23-3.52,12.75,0l36.72,36.72
				c3.52,3.52,3.52,9.23,0,12.75l0,0C342.27,475.43,336.56,475.43,333.04,471.91z" />
		</g>
	</g>
        <g>
		<g>
			<path class="st1" d="M462.81,451.89h-51.94c-4.98,0-9.01-4.04-9.01-9.01v0c0-4.98,4.04-9.01,9.01-9.01h51.94
				c4.98,0,9.01,4.04,9.01,9.01v0C471.83,447.86,467.79,451.89,462.81,451.89z" />
		</g>
            <g>
			<circle class="st1" cx="436.84" cy="417.56" r="9.01" />
                <path class="st1" d="M436.84,427.18c-5.3,0-9.62-4.31-9.62-9.61s4.31-9.62,9.62-9.62s9.62,4.31,9.62,9.62
				S442.15,427.18,436.84,427.18z M436.84,409.15c-4.64,0-8.41,3.77-8.41,8.41s3.77,8.41,8.41,8.41s8.41-3.77,8.41-8.41
				S441.48,409.15,436.84,409.15z" />
		</g>
            <g>
			<circle class="st1" cx="436.84" cy="468.2" r="9.01" />
                <path class="st1" d="M436.84,477.81c-5.3,0-9.62-4.31-9.62-9.62s4.31-9.61,9.62-9.61s9.62,4.31,9.62,9.61
				S442.15,477.81,436.84,477.81z M436.84,459.78c-4.64,0-8.41,3.77-8.41,8.41s3.77,8.41,8.41,8.41s8.41-3.77,8.41-8.41
				S441.48,459.78,436.84,459.78z" />
		</g>
	</g>
        <g>
		<path class="st1" d="M121.83,121.32L57.87,93.93c-5.72-2.45-5.97-10.47-0.4-13.26L122,48.26l8.09,16.11L86.16,86.43l42.77,18.31
			L121.83,121.32z" />
	</g>
        <g>
		<path class="st1"
            d="M329.92,121.37H121.69V48.31h208.23V121.37z M139.71,103.34h172.17v-37H139.71V103.34z" />
	</g>
        <g>
		<path class="st1" d="M329.74,121.37v-18.03c10.2,0,18.5-8.3,18.5-18.5c0-10.2-8.3-18.5-18.5-18.5V48.31
			c20.14,0,36.53,16.39,36.53,36.53S349.89,121.37,329.74,121.37z" />
	</g>
        <g>
		<rect class="st1" height="55.03" width="18.03" x="274.6" y="57.32" />
	</g>
        <g>
		<path class="st1" d="M251.01,93.25h-111.9c-4.65,0-8.41-3.77-8.41-8.41v0c0-4.65,3.77-8.41,8.41-8.41h111.9
			c4.65,0,8.41,3.77,8.41,8.41v0C259.43,89.49,255.66,93.25,251.01,93.25z" />
	</g>
        <g>
		<path class="st1" d="M230.42,277.09H209.7c-4.98,0-9.01-4.04-9.01-9.01v0c0-4.98,4.04-9.01,9.01-9.01h20.71
			c4.98,0,9.01,4.04,9.01,9.01v0C239.43,273.06,235.39,277.09,230.42,277.09z" />
	</g>
        <g>
		<path class="st1" d="M178.68,343.68H58.13c-4.98,0-9.01-4.04-9.01-9.01l0,0c0-4.98,4.04-9.01,9.01-9.01h120.56
			c4.98,0,9.01,4.04,9.01,9.01l0,0C187.7,339.65,183.66,343.68,178.68,343.68z" />
	</g>
        <g>
		<path class="st1" d="M230.42,343.68H209.7c-4.98,0-9.01-4.04-9.01-9.01l0,0c0-4.98,4.04-9.01,9.01-9.01h20.71
			c4.98,0,9.01,4.04,9.01,9.01l0,0C239.43,339.65,235.39,343.68,230.42,343.68z" />
	</g>
        <g>
		<path class="st1" d="M178.68,410.27H58.13c-4.98,0-9.01-4.04-9.01-9.01v0c0-4.98,4.04-9.01,9.01-9.01h120.56
			c4.98,0,9.01,4.04,9.01,9.01v0C187.7,406.24,183.66,410.27,178.68,410.27z" />
	</g>
        <g>
		<path class="st1" d="M230.42,410.27H209.7c-4.98,0-9.01-4.04-9.01-9.01v0c0-4.98,4.04-9.01,9.01-9.01h20.71
			c4.98,0,9.01,4.04,9.01,9.01v0C239.43,406.24,235.39,410.27,230.42,410.27z" />
	</g>
        <g>
		<path class="st1" d="M178.68,210.5H58.13c-4.98,0-9.01-4.04-9.01-9.01v0c0-4.98,4.04-9.01,9.01-9.01h120.56
			c4.98,0,9.01,4.04,9.01,9.01v0C187.7,206.46,183.66,210.5,178.68,210.5z" />
	</g>
        <g>
		<path class="st1" d="M230.42,210.5H209.7c-4.98,0-9.01-4.04-9.01-9.01v0c0-4.98,4.04-9.01,9.01-9.01h20.71
			c4.98,0,9.01,4.04,9.01,9.01v0C239.43,206.46,235.39,210.5,230.42,210.5z" />
	</g>
</g>
</svg>
