<?xml version="1.0" encoding="utf-8"?><!-- Generator: Adobe Illustrator 26.0.1, SVG Export Plug-In . SVG Version: 6.00 Build 0)  -->
<svg style="enable-background:new 0 0 512 512;" id="Layer_1" version="1.1" viewBox="0 0 512 512"
    x="0px" xmlns="http://www.w3.org/2000/svg" y="0px" xml:space="preserve">
<style type="text/css">
	.st0{display:none;fill:none;stroke:#00A651;stroke-width:15;stroke-miterlimit:10;}
	.st1{fill:#018544;}
	.st2{fill:#009444;}
</style>
    <path class="st0" d="M362.87,432.32H56.49c-15.23,0-27.57-12.35-27.57-27.57V64.66c0-15.23,12.35-27.57,27.57-27.57h306.38
	c15.23,0,27.57,12.35,27.57,27.57v340.09C390.45,419.97,378.1,432.32,362.87,432.32z" />
    <g>
	<g>
		<path class="st1" d="M262.75,477.21H37.82c-12.92,0-23.44-10.51-23.44-23.44V26.16c0-12.92,10.51-23.44,23.44-23.44h328.96
			c12.92,0,23.44,10.51,23.44,23.44v135.33h-18.03V26.16c0-2.93-2.48-5.41-5.41-5.41H37.82c-2.93,0-5.41,2.48-5.41,5.41v427.61
			c0,2.93,2.48,5.41,5.41,5.41h224.93V477.21z" />
	</g>
        <g>
		<path class="st1" d="M474.18,509.28H280.86c-12.92,0-23.44-10.51-23.44-23.44V179.59c0-12.92,10.51-23.44,23.44-23.44h193.32
			c12.92,0,23.44,10.51,23.44,23.44v306.25C497.62,498.76,487.1,509.28,474.18,509.28z M280.86,174.18c-2.93,0-5.41,2.48-5.41,5.41
			v306.25c0,2.93,2.48,5.41,5.41,5.41h193.32c2.93,0,5.41-2.48,5.41-5.41V179.59c0-2.93-2.48-5.41-5.41-5.41H280.86z" />
	</g>
        <g>
		<rect class="st1" height="18.03" width="222.17" x="260.3" y="281.97" />
	</g>
        <g>
		<rect class="st1" height="18.03" width="222.17" x="270.12" y="383.23" />
	</g>
        <g>
		<rect class="st1" height="222.17" width="18.03" x="368.5" y="284.85" />
	</g>
        <g>
		<rect class="st1" height="18.03" width="69.96" x="397.77" y="332.6" />
	</g>
        <g>
		<rect class="st1" height="18.03" width="138.59" x="331.55" y="251.78" />
	</g>
        <g>
		<rect class="st1" height="18.03" width="138.59" x="49.11" y="197.27" />
	</g>
        <g>
		<g>
			<rect class="st1" height="18.03" width="69.96" x="286.07" y="332.6" />
		</g>
            <g>
			<g>
				<rect class="st1" height="69.96" width="18.03" x="312.04" y="306.63" />
			</g>
		</g>
	</g>
        <g>
		<g>
			
				<rect class="st1" height="18.03"
                    transform="matrix(0.7071 -0.7071 0.7071 0.7071 -222.1658 357.9948)"
                    width="69.97" x="286.07" y="438.16" />
		</g>
            <g>
			
				<rect class="st1" height="69.97"
                    transform="matrix(0.7071 -0.7071 0.7071 0.7071 -222.1658 357.9948)"
                    width="18.03" x="312.04" y="412.19" />
		</g>
	</g>
        <g>
		<g>
			<rect class="st1" height="18.03" width="69.96" x="401.86" y="433.86" />
		</g>
            <g>
			<circle class="st2" cx="436.84" cy="417.56" r="9.01" />
                <path class="st1" d="M436.84,427.18c-5.3,0-9.62-4.31-9.62-9.61s4.31-9.62,9.62-9.62s9.62,4.31,9.62,9.62
				S442.15,427.18,436.84,427.18z M436.84,409.15c-4.64,0-8.41,3.77-8.41,8.41s3.77,8.41,8.41,8.41s8.41-3.77,8.41-8.41
				S441.48,409.15,436.84,409.15z" />
		</g>
            <g>
			<circle class="st2" cx="436.84" cy="468.2" r="9.01" />
                <path class="st1" d="M436.84,477.81c-5.3,0-9.62-4.31-9.62-9.62s4.31-9.61,9.62-9.61s9.62,4.31,9.62,9.61
				S442.15,477.81,436.84,477.81z M436.84,459.78c-4.64,0-8.41,3.77-8.41,8.41s3.77,8.41,8.41,8.41s8.41-3.77,8.41-8.41
				S441.48,459.78,436.84,459.78z" />
		</g>
	</g>
        <g>
		<polygon class="st1"
            points="121.83,121.32 43.4,87.74 122,48.26 130.09,64.37 86.16,86.43 128.93,104.74 		" />
	</g>
        <g>
		<path class="st1"
            d="M329.92,121.37H121.69V48.31h208.23V121.37z M139.71,103.34h172.17v-37H139.71V103.34z" />
	</g>
        <g>
		<path class="st1" d="M329.74,121.37v-18.03c10.2,0,18.5-8.3,18.5-18.5c0-10.2-8.3-18.5-18.5-18.5V48.31
			c20.14,0,36.53,16.39,36.53,36.53S349.89,121.37,329.74,121.37z" />
	</g>
        <g>
		<rect class="st1" height="55.03" width="18.03" x="274.6" y="57.32" />
	</g>
        <g>
		<rect class="st1" height="16.83" width="128.73" x="130.7" y="76.43" />
	</g>
        <g>
		<rect class="st1" height="18.03" width="38.74" x="200.69" y="197.27" />
	</g>
        <g>
		<rect class="st1" height="18.03" width="138.59" x="49.11" y="242.08" />
	</g>
        <g>
		<rect class="st1" height="18.03" width="38.74" x="200.69" y="242.08" />
	</g>
        <g>
		<rect class="st1" height="18.03" width="138.59" x="49.11" y="152.47" />
	</g>
        <g>
		<rect class="st1" height="18.03" width="38.74" x="200.69" y="152.47" />
	</g>
        <g>
		<rect class="st1" height="18.03" width="138.59" x="49.11" y="286.88" />
	</g>
        <g>
		<rect class="st1" height="18.03" width="38.74" x="200.69" y="286.88" />
	</g>
        <g>
		<rect class="st1" height="18.03" width="138.59" x="49.11" y="331.68" />
	</g>
        <g>
		<rect class="st1" height="18.03" width="38.74" x="200.69" y="331.68" />
	</g>
        <g>
		<rect class="st1" height="18.03" width="138.59" x="49.11" y="376.48" />
	</g>
        <g>
		<rect class="st1" height="18.03" width="38.74" x="200.69" y="376.48" />
	</g>
        <g>
		<rect class="st1" height="18.03" width="138.59" x="49.93" y="421.28" />
	</g>
        <g>
		<rect class="st1" height="18.03" width="38.74" x="201.51" y="421.28" />
	</g>
</g>
</svg>
