<?xml version="1.0" encoding="utf-8"?><!-- Generator: Adobe Illustrator 26.0.1, SVG Export Plug-In . SVG Version: 6.00 Build 0)  -->
<svg style="enable-background:new 0 0 512 512;" id="Layer_1" version="1.1" viewBox="0 0 512 512"
    x="0px" xmlns="http://www.w3.org/2000/svg" y="0px" xml:space="preserve">
<style type="text/css">
	.st0{fill:#018544;}
	.st1{fill:#018544;stroke:#231F20;stroke-width:15.8985;stroke-miterlimit:10;}
</style>
    <g>
	<g>
		<g>
			<g>
				<g>
					<path class="st0" d="M353.43,403.2l-48.66-28.19l84.36-145.61l48.66,28.19L353.43,403.2z M325.05,369.61l22.98,13.32
						L417.52,263l-22.98-13.32L325.05,369.61z" />
				</g>
			</g>
		</g>
        <g>
			<g>
				<g>
					<path class="st0" d="M430.36,270.44l-48.66-28.19l28.24-48.74c7.77-13.42,25.01-18.01,38.43-10.23
						c6.48,3.75,11.11,9.83,13.05,17.1s0.94,14.85-2.81,21.33L430.36,270.44z M401.98,236.84l22.98,13.32l20.8-35.9
						c1.76-3.05,2.23-6.62,1.31-10.07s-3.1-6.32-6.15-8.08c-6.34-3.67-14.48-1.5-18.15,4.83L401.98,236.84z" />
				</g>
			</g>
		</g>
        <g>
			<g>
				<g>
					<path class="st0" d="M297.33,443.94l9.88-73.74l49.18,28.49L297.33,443.94z M320.02,396.31l-1.47,11.01l8.82-6.75
						L320.02,396.31z" />
				</g>
			</g>
		</g>
        <g>
			<g>
				<g>
					
						<rect class="st0" height="12.26"
                            transform="matrix(0.5013 -0.8653 0.8653 0.5013 10.7235 506.0115)"
                            width="16.17" x="436.28" y="237.57" />
				</g>
			</g>
		</g>
        <g>
			<g>
				<g>
					<path class="st0" d="M413.59,323.41c-3.86-2.24-5.18-7.18-2.94-11.05l45.39-78.33c2.24-3.86,7.18-5.18,11.05-2.94
						s5.18,7.18,2.94,11.05l-45.39,78.33C422.4,324.33,417.45,325.65,413.59,323.41z" />
				</g>
			</g>
		</g>
	</g>
        <g>
		<g>
			<g>
				<path class="st0" d="M368.98,503.6H61.55c-11.4,0-20.67-9.27-20.67-20.67V69.17c0-11.4,9.27-20.67,20.67-20.67h76.96v15.07
					c0,2.59,2.18,4.77,4.77,4.77h143.97c2.59,0,4.77-2.18,4.77-4.77V48.5h76.96c11.4,0,20.67,9.27,20.67,20.67v188.54h-15.9V69.17
					c0-2.59-2.18-4.77-4.77-4.77H307.9c-0.43,11.01-9.53,19.84-20.65,19.84H143.28c-11.12,0-20.22-8.83-20.65-19.84H61.55
					c-2.59,0-4.77,2.18-4.77,4.77v413.76c0,2.59,2.18,4.77,4.77,4.77h307.42c2.59,0,4.77-2.18,4.77-4.77v-143.9h15.9v143.9
					C389.65,494.33,380.37,503.6,368.98,503.6z" />
			</g>
		</g>
            <g>
			<g>
				<path class="st1" d="M381.7,339.03" />
			</g>
		</g>
            <g>
			<g>
				<path class="st1" d="M381.7,255.28" />
			</g>
		</g>
            <g>
			<g>
				<path class="st0" d="M287.25,84.24H143.28c-11.4,0-20.67-9.27-20.67-20.67V50.05c0-11.4,9.27-20.67,20.67-20.67h41.98
					c2.38-14.41,14.93-25.44,30-25.44c15.08,0,27.63,11.03,30.01,25.44h41.98c11.4,0,20.67,9.27,20.67,20.67v13.52
					C307.92,74.97,298.65,84.24,287.25,84.24z M143.28,45.28c-2.59,0-4.77,2.18-4.77,4.77v13.52c0,2.59,2.18,4.77,4.77,4.77h143.97
					c2.59,0,4.77-2.18,4.77-4.77V50.05c0-2.59-2.18-4.77-4.77-4.77h-58.87l1.28-9.06c0.08-0.58,0.12-1.21,0.12-1.87
					c0-8-6.51-14.51-14.52-14.51c-8,0-14.51,6.51-14.51,14.51c0,0.66,0.04,1.29,0.12,1.87l1.28,9.06H143.28z" />
			</g>
		</g>
	</g>
        <g>
		<g>
			<path class="st0" d="M266.43,137.44H85.66c-4.39,0-7.95-3.56-7.95-7.95c0-4.39,3.56-7.95,7.95-7.95h180.77
				c4.39,0,7.95,3.56,7.95,7.95C274.38,133.88,270.82,137.44,266.43,137.44z" />
		</g>
	</g>
        <g>
		<g>
			<path class="st0" d="M325.05,137.44h-36.97c-4.39,0-7.95-3.56-7.95-7.95c0-4.39,3.56-7.95,7.95-7.95h36.97
				c4.39,0,7.95,3.56,7.95,7.95C333,133.88,329.44,137.44,325.05,137.44z" />
		</g>
	</g>
        <g>
		<g>
			<path class="st0" d="M139.24,202.38H85.66c-4.39,0-7.95-3.56-7.95-7.95c0-4.39,3.56-7.95,7.95-7.95h53.58
				c4.39,0,7.95,3.56,7.95,7.95C147.19,198.82,143.63,202.38,139.24,202.38z" />
		</g>
	</g>
        <g>
		<g>
			<path class="st0" d="M325.05,202.38H160.89c-4.39,0-7.95-3.56-7.95-7.95c0-4.39,3.56-7.95,7.95-7.95h164.16
				c4.39,0,7.95,3.56,7.95,7.95C333,198.82,329.44,202.38,325.05,202.38z" />
		</g>
	</g>
        <g>
		<g>
			<path class="st0" d="M224.03,267.33H85.66c-4.39,0-7.95-3.56-7.95-7.95s3.56-7.95,7.95-7.95h138.37c4.39,0,7.95,3.56,7.95,7.95
				S228.42,267.33,224.03,267.33z" />
		</g>
	</g>
        <g>
		<g>
			<path class="st0" d="M325.05,267.33h-79.37c-4.39,0-7.95-3.56-7.95-7.95s3.56-7.95,7.95-7.95h79.37c4.39,0,7.95,3.56,7.95,7.95
				S329.44,267.33,325.05,267.33z" />
		</g>
	</g>
        <g>
		<g>
			<path class="st0" d="M266.43,332.28H85.66c-4.39,0-7.95-3.56-7.95-7.95s3.56-7.95,7.95-7.95h180.77c4.39,0,7.95,3.56,7.95,7.95
				S270.82,332.28,266.43,332.28z" />
		</g>
	</g>
</g>
</svg>
