<?xml version="1.0" encoding="utf-8"?><!-- Generator: Adobe Illustrator 26.0.1, SVG Export Plug-In . SVG Version: 6.00 Build 0)  -->
<svg style="enable-background:new 0 0 512 512;" id="Layer_1" version="1.1" viewBox="0 0 512 512"
    x="0px" xmlns="http://www.w3.org/2000/svg" y="0px" xml:space="preserve">
<style type="text/css">
	.st0{fill:none;stroke:#018544;stroke-width:15.6678;stroke-miterlimit:10;}
	.st1{fill:none;stroke:#018544;stroke-width:15;stroke-linecap:round;stroke-miterlimit:10;}
</style>
    <path class="st0" d="M495.62,84.65v377.9c0,13.25-10.84,24.09-24.09,24.09H40.47c-13.25,0-24.09-10.84-24.09-24.09V84.65
	c0-13.25,10.84-24.09,24.09-24.09h75.52v23.47c0,6.9,5.64,12.54,12.53,12.54h11.74c6.89,0,12.53-5.64,12.53-12.54V60.56h206.42
	v23.47c0,6.9,5.64,12.54,12.53,12.54h11.74c6.89,0,12.53-5.64,12.53-12.54V60.56h75.52C484.78,60.56,495.62,71.4,495.62,84.65z" />
    <g>
	<path class="st0" d="M152.79,37.9v46.13c0,6.9-5.64,12.54-12.53,12.54h-11.74c-6.89,0-12.53-5.64-12.53-12.54V37.9
		c0-6.9,5.64-12.54,12.53-12.54h11.74C147.15,25.36,152.79,31,152.79,37.9z" />
        <path class="st0" d="M396.01,37.9v46.13c0,6.9-5.64,12.54-12.53,12.54h-11.74c-6.89,0-12.53-5.64-12.53-12.54V37.9
		c0-6.9,5.64-12.54,12.53-12.54h11.74C390.37,25.36,396.01,31,396.01,37.9z" />
</g>
    <line class="st0" x1="16.38" x2="495.62" y1="120.57" y2="120.57" />
    <polyline class="st1" points="174.32,322.04 217.69,365.42 277.69,305.42 337.68,245.43 " />
</svg>
