<?xml version="1.0" encoding="utf-8"?><!-- Generator: Adobe Illustrator 26.0.1, SVG Export Plug-In . SVG Version: 6.00 Build 0)  -->
<svg style="enable-background:new 0 0 512 512;" id="Layer_1" version="1.1" viewBox="0 0 512 512"
    x="0px" xmlns="http://www.w3.org/2000/svg" y="0px" xml:space="preserve">
<style type="text/css">
	.st0{fill:#018544;}
</style>
    <g>
	<path class="st0" d="M473.59,492.92H42.54c-17.6,0-31.92-14.33-31.92-31.93V83.1c0-17.6,14.32-31.92,31.92-31.92h81.28v31.3
		c0,2.55,2.15,4.7,4.7,4.7h11.74c2.55,0,4.7-2.15,4.7-4.7v-31.3h222.09v31.3c0,2.55,2.15,4.7,4.7,4.7h11.74c2.54,0,4.7-2.15,4.7-4.7
		v-31.3h85.41c17.6,0,31.92,14.32,31.92,31.92v377.89C505.51,478.6,491.19,492.92,473.59,492.92z M42.54,66.84
		c-8.96,0-16.26,7.29-16.26,16.26v377.89c0,8.97,7.29,16.27,16.26,16.27h431.05c8.96,0,16.26-7.3,16.26-16.27V83.1
		c0-8.96-7.29-16.26-16.26-16.26h-69.75v15.64c0,11.23-9.13,20.36-20.36,20.36h-11.74c-11.23,0-20.36-9.14-20.36-20.36V66.84H160.62
		v15.64c0,11.23-9.14,20.36-20.36,20.36h-11.74c-11.23,0-20.36-9.14-20.36-20.36V66.84H42.54z" />
</g>
    <g>
	<g>
		<path class="st0" d="M140.26,102.84h-11.74c-11.23,0-20.36-9.14-20.36-20.36V36.34c0-11.23,9.14-20.36,20.36-20.36h11.74
			c11.23,0,20.36,9.14,20.36,20.36v46.14C160.62,93.71,151.49,102.84,140.26,102.84z M128.52,31.64c-2.55,0-4.7,2.15-4.7,4.7v46.14
			c0,2.55,2.15,4.7,4.7,4.7h11.74c2.55,0,4.7-2.15,4.7-4.7V36.34c0-2.55-2.15-4.7-4.7-4.7H128.52z" />
	</g>
        <g>
		<path class="st0" d="M383.48,102.84h-11.74c-11.23,0-20.36-9.14-20.36-20.36V36.34c0-11.23,9.14-20.36,20.36-20.36h11.74
			c11.23,0,20.36,9.14,20.36,20.36v46.14C403.84,93.71,394.71,102.84,383.48,102.84z M371.74,31.64c-2.55,0-4.7,2.15-4.7,4.7v46.14
			c0,2.55,2.15,4.7,4.7,4.7h11.74c2.54,0,4.7-2.15,4.7-4.7V36.34c0-2.55-2.15-4.7-4.7-4.7H371.74z" />
	</g>
</g>
    <g>
	<rect class="st0" height="15.67" width="479.23" x="18.45" y="111.18" />
</g>
    <g>
	<path class="st0" d="M121.12,342.38H79.78c-11.38,0-20.63-9.26-20.63-20.63V280.4c0-11.38,9.26-20.63,20.63-20.63h41.34
		c11.38,0,20.63,9.26,20.63,20.63v41.34C141.75,333.12,132.5,342.38,121.12,342.38z M79.78,275.97c-2.4,0-4.43,2.03-4.43,4.43v41.34
		c0,2.4,2.03,4.43,4.43,4.43h41.34c2.4,0,4.43-2.03,4.43-4.43V280.4c0-2.4-2.03-4.43-4.43-4.43H79.78z" />
</g>
    <g>
	<path class="st0" d="M121.12,443.18H79.78c-11.38,0-20.63-9.26-20.63-20.63v-41.34c0-11.38,9.26-20.63,20.63-20.63h41.34
		c11.38,0,20.63,9.26,20.63,20.63v41.34C141.75,433.92,132.5,443.18,121.12,443.18z M79.78,376.78c-2.4,0-4.43,2.03-4.43,4.43v41.34
		c0,2.4,2.03,4.43,4.43,4.43h41.34c2.4,0,4.43-2.03,4.43-4.43v-41.34c0-2.4-2.03-4.43-4.43-4.43H79.78z" />
</g>
    <g>
	<path class="st0" d="M226.46,342.38h-41.34c-11.38,0-20.63-9.26-20.63-20.63V280.4c0-11.38,9.26-20.63,20.63-20.63h41.34
		c11.38,0,20.63,9.26,20.63,20.63v41.34C247.1,333.12,237.84,342.38,226.46,342.38z M185.12,275.97c-2.4,0-4.43,2.03-4.43,4.43
		v41.34c0,2.4,2.03,4.43,4.43,4.43h41.34c2.4,0,4.43-2.03,4.43-4.43V280.4c0-2.4-2.03-4.43-4.43-4.43H185.12z" />
</g>
    <g>
	<path class="st0" d="M226.46,443.18h-41.34c-11.38,0-20.63-9.26-20.63-20.63v-41.34c0-11.38,9.26-20.63,20.63-20.63h41.34
		c11.38,0,20.63,9.26,20.63,20.63v41.34C247.1,433.92,237.84,443.18,226.46,443.18z M185.12,376.78c-2.4,0-4.43,2.03-4.43,4.43
		v41.34c0,2.4,2.03,4.43,4.43,4.43h41.34c2.4,0,4.43-2.03,4.43-4.43v-41.34c0-2.4-2.03-4.43-4.43-4.43H185.12z" />
</g>
    <g>
	<path class="st0" d="M331.8,342.38h-41.34c-11.38,0-20.63-9.26-20.63-20.63V280.4c0-11.38,9.26-20.63,20.63-20.63h41.34
		c11.38,0,20.63,9.26,20.63,20.63v41.34C352.44,333.12,343.18,342.38,331.8,342.38z M290.47,275.97c-2.4,0-4.43,2.03-4.43,4.43
		v41.34c0,2.4,2.03,4.43,4.43,4.43h41.34c2.4,0,4.43-2.03,4.43-4.43V280.4c0-2.4-2.03-4.43-4.43-4.43H290.47z" />
</g>
    <g>
	<path class="st0" d="M331.8,443.18h-41.34c-11.38,0-20.63-9.26-20.63-20.63v-41.34c0-11.38,9.26-20.63,20.63-20.63h41.34
		c11.38,0,20.63,9.26,20.63,20.63v41.34C352.44,433.92,343.18,443.18,331.8,443.18z M290.47,376.78c-2.4,0-4.43,2.03-4.43,4.43
		v41.34c0,2.4,2.03,4.43,4.43,4.43h41.34c2.4,0,4.43-2.03,4.43-4.43v-41.34c0-2.4-2.03-4.43-4.43-4.43H290.47z" />
</g>
    <g>
	<path class="st0" d="M437.14,342.38h-41.34c-11.38,0-20.63-9.26-20.63-20.63V280.4c0-11.38,9.26-20.63,20.63-20.63h41.34
		c11.38,0,20.63,9.26,20.63,20.63v41.34C457.78,333.12,448.52,342.38,437.14,342.38z M395.81,275.97c-2.4,0-4.43,2.03-4.43,4.43
		v41.34c0,2.4,2.03,4.43,4.43,4.43h41.34c2.4,0,4.43-2.03,4.43-4.43V280.4c0-2.4-2.03-4.43-4.43-4.43H395.81z" />
</g>
    <g>
	<path class="st0" d="M121.12,246.54H79.78c-11.38,0-20.63-9.26-20.63-20.63v-41.34c0-11.38,9.26-20.63,20.63-20.63h41.34
		c11.38,0,20.63,9.26,20.63,20.63v41.34C141.75,237.28,132.5,246.54,121.12,246.54z M79.78,180.13c-2.4,0-4.43,2.03-4.43,4.43v41.34
		c0,2.4,2.03,4.43,4.43,4.43h41.34c2.4,0,4.43-2.03,4.43-4.43v-41.34c0-2.4-2.03-4.43-4.43-4.43H79.78z" />
</g>
    <g>
	<path class="st0" d="M226.46,246.54h-41.34c-11.38,0-20.63-9.26-20.63-20.63v-41.34c0-11.38,9.26-20.63,20.63-20.63h41.34
		c11.38,0,20.63,9.26,20.63,20.63v41.34C247.1,237.28,237.84,246.54,226.46,246.54z M185.12,180.13c-2.4,0-4.43,2.03-4.43,4.43
		v41.34c0,2.4,2.03,4.43,4.43,4.43h41.34c2.4,0,4.43-2.03,4.43-4.43v-41.34c0-2.4-2.03-4.43-4.43-4.43H185.12z" />
</g>
    <g>
	<path class="st0" d="M331.8,246.54h-41.34c-11.38,0-20.63-9.26-20.63-20.63v-41.34c0-11.38,9.26-20.63,20.63-20.63h41.34
		c11.38,0,20.63,9.26,20.63,20.63v41.34C352.44,237.28,343.18,246.54,331.8,246.54z M290.47,180.13c-2.4,0-4.43,2.03-4.43,4.43
		v41.34c0,2.4,2.03,4.43,4.43,4.43h41.34c2.4,0,4.43-2.03,4.43-4.43v-41.34c0-2.4-2.03-4.43-4.43-4.43H290.47z" />
</g>
    <g>
	<path class="st0" d="M437.14,246.54h-41.34c-11.38,0-20.63-9.26-20.63-20.63v-41.34c0-11.38,9.26-20.63,20.63-20.63h41.34
		c11.38,0,20.63,9.26,20.63,20.63v41.34C457.78,237.28,448.52,246.54,437.14,246.54z M395.81,180.13c-2.4,0-4.43,2.03-4.43,4.43
		v41.34c0,2.4,2.03,4.43,4.43,4.43h41.34c2.4,0,4.43-2.03,4.43-4.43v-41.34c0-2.4-2.03-4.43-4.43-4.43H395.81z" />
</g>
    <g>
	<path class="st0" d="M437.14,443.18h-41.34c-11.38,0-20.63-9.26-20.63-20.63v-41.34c0-11.38,9.26-20.63,20.63-20.63h41.34
		c11.38,0,20.63,9.26,20.63,20.63v41.34C457.78,433.92,448.52,443.18,437.14,443.18z M395.81,376.78c-2.4,0-4.43,2.03-4.43,4.43
		v41.34c0,2.4,2.03,4.43,4.43,4.43h41.34c2.4,0,4.43-2.03,4.43-4.43v-41.34c0-2.4-2.03-4.43-4.43-4.43H395.81z" />
</g>
    <g>
	<path class="st0" d="M92.63,226.81L78.42,212.6c-2.45-2.45-2.45-6.42,0-8.86c2.45-2.45,6.42-2.45,8.86,0l5.35,5.35l20.99-20.99
		c2.45-2.45,6.42-2.45,8.86,0c2.45,2.45,2.45,6.42,0,8.86L92.63,226.81z" />
</g>
    <g>
	<path class="st0" d="M92.63,322.65l-14.21-14.21c-2.45-2.45-2.45-6.42,0-8.86s6.42-2.45,8.86,0l5.35,5.35l20.99-20.99
		c2.45-2.45,6.42-2.45,8.86,0s2.45,6.42,0,8.86L92.63,322.65z" />
</g>
    <g>
	<path class="st0" d="M92.63,418.49l-14.21-14.21c-2.45-2.45-2.45-6.42,0-8.86c2.45-2.45,6.42-2.45,8.86,0l5.35,5.35l20.99-20.99
		c2.45-2.45,6.42-2.45,8.86,0c2.45,2.45,2.45,6.42,0,8.86L92.63,418.49z" />
</g>
    <g>
	<path class="st0" d="M197.97,418.49l-14.21-14.21c-2.45-2.45-2.45-6.42,0-8.86c2.45-2.45,6.42-2.45,8.86,0l5.35,5.35l20.99-20.99
		c2.45-2.45,6.42-2.45,8.86,0c2.45,2.45,2.45,6.42,0,8.86L197.97,418.49z" />
</g>
    <g>
	<path class="st0" d="M300.48,423.45l-14.21-14.21c-2.45-2.45-2.45-6.42,0-8.86s6.42-2.45,8.86,0l5.35,5.35l20.99-20.99
		c2.45-2.45,6.42-2.45,8.86,0s2.45,6.42,0,8.86L300.48,423.45z" />
</g>
    <g>
	<path class="st0" d="M197.97,226.81l-14.21-14.21c-2.45-2.45-2.45-6.42,0-8.86c2.45-2.45,6.42-2.45,8.86,0l5.35,5.35l20.99-20.99
		c2.45-2.45,6.42-2.45,8.86,0c2.45,2.45,2.45,6.42,0,8.86L197.97,226.81z" />
</g>
    <g>
	<path class="st0" d="M408.65,226.81l-14.21-14.21c-2.45-2.45-2.45-6.42,0-8.86c2.45-2.45,6.42-2.45,8.86,0l5.35,5.35l20.99-20.99
		c2.45-2.45,6.42-2.45,8.86,0c2.45,2.45,2.45,6.42,0,8.86L408.65,226.81z" />
</g>
    <g>
	<g>
		<path class="st0" d="M220.56,322.11c-1.6,0-3.21-0.61-4.43-1.84l-29.54-29.54c-2.45-2.45-2.45-6.42,0-8.86s6.42-2.45,8.86,0
			l29.54,29.54c2.45,2.45,2.45,6.42,0,8.86C223.77,321.5,222.17,322.11,220.56,322.11z" />
	</g>
        <g>
		<path class="st0" d="M191.02,322.11c-1.6,0-3.21-0.61-4.43-1.84c-2.45-2.45-2.45-6.42,0-8.86l29.54-29.54
			c2.45-2.45,6.42-2.45,8.86,0c2.45,2.45,2.45,6.42,0,8.86l-29.54,29.54C194.23,321.5,192.63,322.11,191.02,322.11z" />
	</g>
</g>
    <g>
	<g>
		<path class="st0" d="M325.9,322.11c-1.6,0-3.21-0.61-4.43-1.84l-29.54-29.54c-2.45-2.45-2.45-6.42,0-8.86s6.42-2.45,8.86,0
			l29.54,29.54c2.45,2.45,2.45,6.42,0,8.86C329.11,321.5,327.51,322.11,325.9,322.11z" />
	</g>
        <g>
		<path class="st0" d="M296.36,322.11c-1.6,0-3.21-0.61-4.43-1.84c-2.45-2.45-2.45-6.42,0-8.86l29.54-29.54
			c2.45-2.45,6.42-2.45,8.86,0s2.45,6.42,0,8.86l-29.54,29.54C299.57,321.5,297.97,322.11,296.36,322.11z" />
	</g>
</g>
    <g>
	<g>
		<path class="st0" d="M325.9,226.27c-1.6,0-3.21-0.61-4.43-1.84l-29.54-29.54c-2.45-2.45-2.45-6.42,0-8.86
			c2.45-2.45,6.42-2.45,8.86,0l29.54,29.54c2.45,2.45,2.45,6.42,0,8.86C329.11,225.66,327.51,226.27,325.9,226.27z" />
	</g>
        <g>
		<path class="st0" d="M296.36,226.27c-1.6,0-3.21-0.61-4.43-1.84c-2.45-2.45-2.45-6.42,0-8.86l29.54-29.54
			c2.45-2.45,6.42-2.45,8.86,0c2.45,2.45,2.45,6.42,0,8.86l-29.54,29.54C299.57,225.66,297.97,226.27,296.36,226.27z" />
	</g>
</g>
</svg>
