<?xml version="1.0" encoding="utf-8"?><!-- Generator: Adobe Illustrator 26.0.1, SVG Export Plug-In . SVG Version: 6.00 Build 0)  -->
<svg style="enable-background:new 0 0 512 512;" id="Layer_1" version="1.1" viewBox="0 0 512 512"
    x="0px" xmlns="http://www.w3.org/2000/svg" y="0px" xml:space="preserve">
<style type="text/css">
	.st0{fill:#018544;}
	.st1{fill:#018544;stroke:#231F20;stroke-width:17.6857;stroke-miterlimit:10;}
</style>
    <g>
	<g>
		<path class="st0" d="M360.65,333.38c-20.13,0-35.12-8.25-42.78-19.44c-10.76-15.72-7.73-35.68,7.91-52.1
			c8.72-9.15,23.14-18.43,41.71-26.82l7.29,16.12c-16.27,7.36-29.12,15.49-36.18,22.9c-9.69,10.17-11.98,21.36-6.12,29.91
			c7.46,10.9,28.68,17.19,57.64,5.26l6.74,16.35C383.55,331.04,371.37,333.38,360.65,333.38z" />
	</g>
        <g>
		<path class="st1" d="M371.13,243.08" />
	</g>
        <g>
		<path class="st0" d="M417.3,231.79L409.34,216c15.46-7.79,36.81-20.12,43.81-37.22c20.85-51-56.84-98.52-100.84-116.53l6.7-16.37
			c33.95,13.9,65.18,33.8,85.67,54.61c27.54,27.98,36.14,57.36,24.84,84.98C460.38,207.81,436.81,221.96,417.3,231.79z" />
	</g>
        <g>
		<path class="st1" d="M337.15,135.66" />
	</g>
        <g>
		<g>
			<path class="st0" d="M325.54,107.47l-7.29-1.54c-14.23-3.01-25.52-13.78-31.81-30.32c-4.97-13.09,0.64-28.97,5.14-41.73
				c0.61-1.72,1.2-3.39,1.73-4.98c2.16-6.38,3.43-11.44,4.12-14.55c0.89-3.97,3.66-7.13,7.42-8.49c3.76-1.36,7.92-0.69,11.11,1.79
				c1.71,1.33,4.65,3.4,9.09,5.77c1.3,0.69,2.69,1.41,4.13,2.16c13.45,7,30.19,15.7,35.71,30.24c2.85,7.51,4.16,14.8,3.9,21.69v0
				c-0.31,8.19-2.92,15.83-7.54,22.1l-4.42,6l-6.66-3.34c-0.64-0.32-1.91-0.78-3.28-0.26l-16.32,6.2c-1.37,0.52-2.01,1.71-2.28,2.37
				L325.54,107.47z M312.55,26.64c-0.68,2.37-1.49,5.02-2.47,7.9c-0.56,1.66-1.18,3.41-1.81,5.21c-3.36,9.51-7.96,22.53-5.28,29.57
				c3.2,8.43,7.86,14.34,13.63,17.38c2.16-2.21,4.78-3.95,7.68-5.05l16.32-6.2c2.9-1.1,6.01-1.54,9.09-1.32
				c0.84-2.25,1.31-4.69,1.42-7.31c0.17-4.5-0.76-9.46-2.76-14.73c-3.13-8.24-17.12-15.51-27.33-20.83c-1.5-0.78-2.94-1.53-4.3-2.25
				C315.29,28.24,313.89,27.44,312.55,26.64z" />
		</g>
            <g>
			<path class="st0" d="M327.6,149.27l-5.54-11.34c-0.33-0.67-0.63-1.37-0.9-2.08l-9.38-24.71c-2.13-5.61-2.09-11.71,0.12-17.17
				c2.27-5.68,6.79-10.18,12.41-12.31l16.32-6.2c5.61-2.13,11.99-1.77,17.49,0.99c5.25,2.6,9.33,7.14,11.46,12.74v0l9.38,24.7
				c0.27,0.72,0.51,1.45,0.71,2.17l3.35,12.16l-12.57-0.99l-34.09,12.95L327.6,149.27z M348.17,91.76c-0.41,0-0.84,0.07-1.28,0.23
				l-16.32,6.2c-1.37,0.52-2.01,1.71-2.28,2.37c-0.55,1.36-0.54,2.87,0,4.3l6.46,17l24.73-9.39l-6.46-17
				c-0.54-1.43-1.55-2.57-2.82-3.2C349.75,92.04,349.02,91.76,348.17,91.76z" />
		</g>
            <g>
			<path class="st0" d="M339.79,166.87c-0.48,0-0.96-0.02-1.44-0.06c-7.17-0.56-13.49-5.39-16.12-12.3l-2.53-6.67
				c-2.64-6.95-1.09-14.78,3.95-19.97c1.79-1.86,3.96-3.29,6.42-4.23l34.1-12.95c2.46-0.94,5.04-1.3,7.66-1.1
				c7.17,0.54,13.52,5.38,16.16,12.31l2.53,6.67c2.69,7.09,1.05,15.02-4.19,20.22c-1.81,1.77-3.87,3.1-6.17,3.98l-34.1,12.95
				C344.05,166.48,341.91,166.87,339.79,166.87z M370.46,127.23l-34.12,12.95c-0.16,0.17-0.37,0.7-0.11,1.38l2.53,6.67
				c0.26,0.68,0.77,0.94,0.97,0.95l0.11,0.01l34.03-12.95c0.15-0.15,0.38-0.69,0.11-1.38l-2.53-6.67
				C371.19,127.5,370.66,127.24,370.46,127.23z" />
		</g>
            <g>
			<path class="st0" d="M442.57,387.85c-5.62,0-11-4.52-16.09-9.28c-6.08-5.69-12.88-13.31-17.52-18.7
				c-6.34-7.37-23.36-27.99-25.98-34.88l-0.16-0.46l-24.45-76.78l16.85-5.37l24.31,76.34c3.69,7.46,33.22,43.25,43.26,50.68
				c2.62-12.22,1.06-58.64-1.11-66.69l-34.03-76.45l16.16-7.19l34.33,77.12l0.09,0.23c2.62,6.89,3.51,33.66,3.63,43.39
				c0.09,7.12,0.03,17.34-0.76,25.64c-0.8,8.45-2.17,16.92-9.12,19.56l-5.71,2.17C445.04,387.64,443.8,387.85,442.57,387.85z" />
		</g>
            <g>
			<path class="st0" d="M358.38,247.74l-27.4-86.05c-0.15-0.4-0.28-0.81-0.4-1.22l-3.62-12.41l12.88,1.13l34.03-12.95l9.21-9.04
				l5.14,11.82c0.12,0.27,0.23,0.53,0.33,0.79l35.28,79.25l-16.16,7.19l-31.96-71.79l-25.4,9.65l24.92,78.27L358.38,247.74z" />
		</g>
	</g>
        <g>
		<path class="st0" d="M269.49,506.84c-28.82,0-59.03-5.81-88.24-17.04c-33.71-12.96-65.33-32.82-91.45-57.43
			c-48.51-45.72-74.85-104.15-74.17-164.52c0.4-35.54,10.01-69.28,28.55-100.28c16.42-27.45,39.39-52.13,68.29-73.36
			c50.68-37.24,116.54-60.73,171.88-61.31c4.13-0.05,8.34,0.05,12.49,0.27l-0.94,17.66c-3.78-0.2-7.6-0.28-11.37-0.24
			c-89.29,0.93-249.6,74.39-251.23,217.46c-0.63,55.37,23.74,109.16,68.61,151.45c49.91,47.04,119.25,73.55,180.96,69.19
			c99.78-7.05,137.99-37.51,168.58-68.1c18.55-18.55,35.66-50.95,22.8-81.17c-2.34-5.51-12.94-14.28-17.35-13.37l-3.6-17.32
			c15.44-3.2,32.88,13.56,37.22,23.76c13.42,31.55,3,71.04-26.57,100.6c-32.96,32.96-73.99,65.76-179.84,73.24
			C279.31,506.67,274.42,506.84,269.49,506.84z" />
	</g>
        <g>
		<path class="st0" d="M248.16,166.87c-21.63,0-39.22-17.59-39.22-39.22s17.59-39.22,39.22-39.22s39.22,17.59,39.22,39.22
			S269.79,166.87,248.16,166.87z M248.16,106.12c-11.87,0-21.53,9.66-21.53,21.53s9.66,21.53,21.53,21.53s21.53-9.66,21.53-21.53
			S260.03,106.12,248.16,106.12z" />
	</g>
        <g>
		<path class="st0" d="M144.76,213.56c-21.63,0-39.22-17.59-39.22-39.22s17.59-39.22,39.22-39.22s39.22,17.59,39.22,39.22
			S166.39,213.56,144.76,213.56z M144.76,152.8c-11.87,0-21.53,9.66-21.53,21.53s9.66,21.53,21.53,21.53s21.53-9.66,21.53-21.53
			S156.64,152.8,144.76,152.8z" />
	</g>
        <g>
		<path class="st0" d="M114.38,358.06c-29.72,0-53.89-24.18-53.89-53.89c0-29.72,24.18-53.89,53.89-53.89
			c29.72,0,53.89,24.18,53.89,53.89C168.28,333.88,144.1,358.06,114.38,358.06z M114.38,267.96c-19.97,0-36.21,16.24-36.21,36.21
			c0,19.96,16.24,36.21,36.21,36.21s36.21-16.24,36.21-36.21C150.59,284.2,134.35,267.96,114.38,267.96z" />
	</g>
        <g>
		<path class="st0" d="M170.1,429.35c-1.68,0-3.36-0.13-5.05-0.4c-8.31-1.33-15.61-5.82-20.55-12.64
			c-4.94-6.82-6.93-15.16-5.59-23.47c2.75-17.16,18.95-28.89,36.11-26.15c17.17,2.75,28.9,18.95,26.15,36.11
			c-1.33,8.32-5.82,15.61-12.64,20.55C183.08,427.29,176.68,429.35,170.1,429.35z M170.02,380.43c-8.38,0-15.78,6.1-17.15,14.63
			c-0.73,4.58,0.36,9.18,3.08,12.94s6.75,6.23,11.33,6.97c4.58,0.73,9.18-0.36,12.94-3.08c3.76-2.72,6.23-6.75,6.97-11.33
			c1.51-9.46-4.95-18.39-14.41-19.91C171.85,380.5,170.93,380.43,170.02,380.43z" />
	</g>
        <g>
		<path class="st0" d="M367.39,459.74c-2.05,0-4.13-0.16-6.22-0.5c-10.34-1.66-19.42-7.24-25.57-15.73s-8.62-18.86-6.96-29.2
			c3.42-21.35,23.56-35.95,44.92-32.53c21.35,3.42,35.95,23.57,32.53,44.92l0,0C403.01,445.98,386.3,459.74,367.39,459.74z
			 M367.32,398.98c-4.5,0-8.87,1.41-12.58,4.1c-4.66,3.37-7.73,8.36-8.63,14.04c-1.88,11.72,6.14,22.79,17.86,24.67
			c11.73,1.88,22.79-6.13,24.67-17.86c1.88-11.72-6.14-22.79-17.86-24.67C369.62,399.07,368.46,398.98,367.32,398.98z" />
	</g>
        <g>
		<path class="st0" d="M255.1,464.46c-2.08,0-4.18-0.17-6.28-0.5c-21.35-3.42-35.95-23.57-32.53-44.92
			c3.42-21.35,23.57-35.95,44.93-32.53c21.35,3.42,35.95,23.57,32.53,44.92l0,0c-1.66,10.34-7.24,19.42-15.73,25.57
			C271.25,461.89,263.29,464.46,255.1,464.46z M255,403.69c-10.39,0-19.56,7.56-21.25,18.13c-1.88,11.72,6.14,22.79,17.86,24.67
			c11.72,1.87,22.79-6.14,24.67-17.86c1.88-11.72-6.14-22.79-17.86-24.67C257.27,403.78,256.13,403.69,255,403.69z" />
	</g>
        <g>
		<path class="st0" d="M239.77,327.69c-2.08,0-4.18-0.17-6.28-0.5c-21.35-3.42-35.95-23.57-32.53-44.92
			c3.42-21.35,23.58-35.94,44.93-32.53c10.34,1.66,19.42,7.24,25.57,15.73c6.14,8.49,8.62,18.86,6.96,29.2
			c-1.66,10.34-7.24,19.42-15.73,25.57C255.93,325.12,247.96,327.69,239.77,327.69z M239.68,266.92c-10.39,0-19.56,7.56-21.25,18.13
			c-1.88,11.72,6.14,22.79,17.86,24.67c5.68,0.91,11.37-0.45,16.03-3.82c4.66-3.37,7.73-8.36,8.63-14.04l0,0
			c0.91-5.68-0.45-11.37-3.82-16.03c-3.37-4.66-8.36-7.73-14.04-8.63C241.95,267.01,240.8,266.92,239.68,266.92z" />
	</g>
</g>
</svg>
