<?xml version="1.0" encoding="utf-8"?><!-- Generator: Adobe Illustrator 26.0.1, SVG Export Plug-In . SVG Version: 6.00 Build 0)  -->
<svg style="enable-background:new 0 0 512 512;" id="Layer_1" version="1.1" viewBox="0 0 512 512"
    x="0px" xmlns="http://www.w3.org/2000/svg" y="0px" xml:space="preserve">
<style type="text/css">
	.st0{fill:#018544;stroke:#231F20;stroke-width:14;stroke-miterlimit:10;}
	.st1{fill:#018544;}
</style>
    <g>
	<g>
		<g>
			<path class="st0" d="M460.91,128.46" />
		</g>
        <g>
			<path class="st1" d="M7.75,430.5V121.46h43.63v14H21.75v279.16l60.76-7.66c45.85-5.78,92.2-4.81,137.78,2.87l33.34,5.62
				l33.15-5.65c45.03-7.67,90.85-8.78,136.19-3.29l67.29,8.14v-279.2h-29.33v-14h43.33v308.99l-82.97-10.04
				c-44-5.32-88.46-4.25-132.16,3.19l-35.48,6.04l-35.68-6.02c-44.22-7.46-89.21-8.4-133.7-2.79L7.75,430.5z" />
		</g>
        <g>
			<path class="st1" d="M260.7,432.74L235.29,423c-58.7-22.49-122.89-32.15-185.61-27.92l-7.47,0.5V80.49l11.9-0.67
				c64.42-3.62,130.22,6.95,190.27,30.56l16.32,6.42V432.74z M78.54,380.11c55.08,0,110.45,10.16,161.77,29.82l6.4,2.45V126.34
				l-7.44-2.93c-57.78-22.72-121.05-32.98-183.05-29.69v286.94C63.64,380.3,71.09,380.11,78.54,380.11z" />
		</g>
        <g>
			<path class="st1" d="M246.7,432.88V116.82l11.42-4.54c62.5-24.86,131.03-35.98,198.17-32.16l6.6,0.38V395.5l-7.4-0.42
				c-65.13-3.7-131.59,7.09-192.2,31.19L246.7,432.88z M260.7,126.32v285.93c59.5-23.24,124.34-34.08,188.19-31.5V93.77
				c-63.01-2.64-127.03,8.23-185.6,31.52L260.7,126.32z" />
		</g>
	</g>
        <g>
		<path class="st1" d="M107.77,163.09l-2.46-6.47H84.36l-2.46,6.61c-0.96,2.58-1.78,4.32-2.46,5.22c-0.68,0.9-1.79,1.35-3.34,1.35
			c-1.31,0-2.47-0.48-3.48-1.44c-1.01-0.96-1.51-2.05-1.51-3.27c0-0.7,0.12-1.43,0.35-2.18c0.23-0.75,0.62-1.79,1.16-3.13
			l13.18-33.47c0.37-0.96,0.83-2.11,1.35-3.46c0.53-1.35,1.09-2.47,1.69-3.36c0.6-0.89,1.38-1.61,2.36-2.16
			c0.97-0.55,2.17-0.83,3.6-0.83c1.45,0,2.67,0.28,3.64,0.83c0.97,0.55,1.76,1.26,2.36,2.13c0.6,0.87,1.1,1.8,1.51,2.79
			c0.41,1,0.93,2.33,1.56,3.99l13.46,33.26c1.05,2.53,1.58,4.37,1.58,5.52c0,1.2-0.5,2.29-1.49,3.29c-1,1-2.2,1.49-3.6,1.49
			c-0.82,0-1.52-0.15-2.11-0.44c-0.59-0.29-1.08-0.69-1.48-1.2c-0.4-0.5-0.83-1.28-1.28-2.32
			C108.49,164.81,108.1,163.89,107.77,163.09z M87.1,148.78h15.4l-7.77-21.27L87.1,148.78z" />
            <path class="st1" d="M150.17,164.39c-2.32,1.81-4.56,3.16-6.73,4.06c-2.17,0.9-4.6,1.35-7.29,1.35c-2.46,0-4.62-0.49-6.49-1.46
			s-3.3-2.29-4.31-3.96c-1.01-1.66-1.51-3.47-1.51-5.41c0-2.62,0.83-4.86,2.5-6.71c1.66-1.85,3.95-3.09,6.86-3.73
			c0.61-0.14,2.12-0.46,4.54-0.95c2.41-0.49,4.48-0.94,6.21-1.35c1.72-0.41,3.59-0.91,5.61-1.49c-0.12-2.53-0.63-4.39-1.53-5.57
			c-0.9-1.18-2.77-1.78-5.61-1.78c-2.44,0-4.27,0.34-5.5,1.02c-1.23,0.68-2.29,1.7-3.16,3.06c-0.88,1.36-1.5,2.26-1.86,2.69
			c-0.36,0.43-1.14,0.65-2.34,0.65c-1.08,0-2.01-0.35-2.79-1.04c-0.79-0.69-1.18-1.58-1.18-2.65c0-1.69,0.6-3.33,1.79-4.92
			c1.2-1.59,3.06-2.91,5.59-3.94c2.53-1.03,5.68-1.55,9.46-1.55c4.22,0,7.54,0.5,9.95,1.49c2.41,1,4.12,2.57,5.12,4.73
			c1,2.16,1.49,5.02,1.49,8.58c0,2.25-0.01,4.16-0.02,5.73c-0.01,1.57-0.03,3.32-0.05,5.24c0,1.81,0.3,3.69,0.9,5.64
			c0.6,1.96,0.9,3.22,0.9,3.78c0,0.98-0.46,1.88-1.39,2.69c-0.93,0.81-1.97,1.21-3.15,1.21c-0.98,0-1.96-0.46-2.92-1.39
			C152.27,167.49,151.25,166.15,150.17,164.39z M149.54,150.51c-1.41,0.52-3.45,1.06-6.13,1.63c-2.68,0.57-4.54,1-5.57,1.27
			c-1.03,0.27-2.02,0.8-2.95,1.58c-0.94,0.79-1.41,1.88-1.41,3.29c0,1.45,0.55,2.69,1.65,3.71c1.1,1.02,2.54,1.53,4.32,1.53
			c1.9,0,3.65-0.42,5.26-1.25c1.6-0.83,2.78-1.9,3.53-3.22c0.87-1.45,1.3-3.84,1.3-7.17V150.51z" />
	</g>
        <g>
		<path class="st1" d="M358.89,330.84l26.47-31.68h-22.75c-1.59,0-2.79-0.35-3.6-1.05s-1.21-1.63-1.21-2.78c0-1.2,0.4-2.16,1.21-2.9
			s2.01-1.11,3.6-1.11h29.32c3.8,0,5.7,1.77,5.7,5.31c0,1.69-0.32,3.04-0.95,4.04s-1.91,2.64-3.83,4.89l-24.75,29.46h27.28
			c1.62,0,2.82,0.33,3.62,1s1.2,1.6,1.2,2.79c0,1.24-0.4,2.23-1.2,2.95s-2,1.09-3.62,1.09h-33.47c-2.27,0-3.98-0.51-5.13-1.53
			s-1.72-2.38-1.72-4.1c0-0.59,0.09-1.12,0.28-1.62s0.44-0.96,0.76-1.39s0.76-0.98,1.32-1.65S358.47,331.33,358.89,330.84z" />
            <path class="st1" d="M432.19,315.73l-17.58,19.65h18.81c1.52,0,2.67,0.36,3.45,1.07s1.16,1.63,1.16,2.76
			c0,1.08-0.38,1.96-1.14,2.64s-1.92,1.02-3.46,1.02h-26.02c-1.83,0-3.19-0.4-4.1-1.2s-1.35-1.89-1.35-3.27
			c0-0.82,0.32-1.65,0.95-2.48s1.95-2.36,3.94-4.59c2.11-2.34,4.03-4.46,5.75-6.36s3.32-3.67,4.8-5.33s2.7-3.05,3.67-4.2
			s1.75-2.13,2.34-2.95h-14.27c-1.97,0-3.46-0.18-4.46-0.53s-1.51-1.28-1.51-2.78c0-1.1,0.38-1.98,1.14-2.64s1.85-0.98,3.25-0.98
			h22.04c2.04,0,3.6,0.3,4.69,0.9s1.63,1.67,1.63,3.22c0,0.52-0.11,1.05-0.32,1.6s-0.45,1-0.7,1.35s-0.61,0.78-1.05,1.28
			S432.85,315.02,432.19,315.73z" />
	</g>
        <g>
		<path class="st1" d="M229.4,181.14c-0.77,0-1.55-0.18-2.28-0.55l-3.1-1.59c-15.74-8.07-33.4-12.45-51.09-12.67
			c-2.76-0.03-4.97-2.3-4.94-5.06c0.03-2.76,2.32-5.01,5.06-4.94c19.22,0.24,38.42,5,55.52,13.77l3.1,1.59
			c2.46,1.26,3.43,4.27,2.17,6.73C232.97,180.15,231.22,181.14,229.4,181.14z" />
	</g>
        <g>
		<path class="st1" d="M232.41,222.14c-0.42,0-0.84-0.05-1.26-0.16l-6.1-1.59c-64.58-17.03-70.16-16.74-138.36-13.24l-3.43,0.18
			c-2.75,0.12-5.11-1.98-5.25-4.74c-0.14-2.76,1.98-5.11,4.74-5.25l3.43-0.18c69.64-3.58,75.33-3.87,141.41,13.55l6.09,1.59
			c2.67,0.7,4.27,3.43,3.58,6.1C236.66,220.65,234.63,222.14,232.41,222.14z" />
	</g>
        <g>
		<path class="st1" d="M232.41,263.14c-0.42,0-0.84-0.05-1.26-0.16l-6.1-1.59c-64.58-17.03-70.16-16.74-138.36-13.24l-3.43,0.18
			c-2.75,0.14-5.11-1.98-5.25-4.74c-0.14-2.76,1.98-5.11,4.74-5.25l3.43-0.18c69.64-3.58,75.33-3.87,141.41,13.55l6.09,1.59
			c2.67,0.7,4.27,3.43,3.58,6.1C236.66,261.65,234.63,263.14,232.41,263.14z" />
	</g>
        <g>
		<path class="st1" d="M229.41,304.14c-0.42,0-0.84-0.05-1.26-0.16l-6.1-1.59c-64.58-17.03-70.16-16.74-138.36-13.24l-3.42,0.18
			c-2.75,0.15-5.11-1.98-5.25-4.74c-0.14-2.76,1.98-5.11,4.74-5.25l3.42-0.18c69.64-3.58,75.33-3.87,141.41,13.55l6.09,1.59
			c2.67,0.7,4.27,3.43,3.58,6.1C233.66,302.65,231.63,304.14,229.41,304.14z" />
	</g>
        <g>
		<path class="st1" d="M232.41,345.14c-0.42,0-0.84-0.05-1.26-0.16l-6.1-1.59c-64.58-17.03-70.16-16.74-138.36-13.24l-3.42,0.18
			c-2.75,0.14-5.11-1.98-5.25-4.74c-0.14-2.76,1.98-5.11,4.74-5.25l3.42-0.18c69.64-3.58,75.33-3.87,141.41,13.55l6.09,1.59
			c2.67,0.7,4.27,3.43,3.58,6.1C236.66,343.65,234.63,345.14,232.41,345.14z" />
	</g>
        <g>
		<path class="st1" d="M279,183.14c-2.22,0-4.25-1.49-4.84-3.74c-0.7-2.67,0.91-5.4,3.58-6.1l6.1-1.59
			c66.06-17.42,71.75-17.12,141.39-13.55l3.43,0.18c2.76,0.14,4.88,2.49,4.74,5.25c-0.14,2.76-2.49,4.88-5.25,4.74l-3.43-0.18
			c-68.2-3.5-73.78-3.79-138.35,13.23l-6.12,1.59C279.84,183.09,279.41,183.14,279,183.14z" />
	</g>
        <g>
		<path class="st1" d="M279,226.16c-2.22,0-4.25-1.49-4.84-3.74c-0.7-2.67,0.91-5.4,3.58-6.1l6.1-1.59
			c66.06-17.42,71.75-17.12,141.39-13.55l3.43,0.18c2.76,0.14,4.88,2.49,4.74,5.25c-0.14,2.76-2.49,4.87-5.25,4.74l-3.43-0.18
			c-68.21-3.5-73.78-3.79-138.35,13.23l-6.12,1.59C279.84,226.1,279.41,226.16,279,226.16z" />
	</g>
        <g>
		<path class="st1" d="M279,269.17c-2.22,0-4.25-1.49-4.83-3.74c-0.7-2.67,0.91-5.4,3.58-6.1l6.1-1.59
			c66.06-17.42,71.75-17.12,141.39-13.55l3.43,0.18c2.76,0.14,4.88,2.49,4.74,5.25c-0.14,2.76-2.49,4.88-5.25,4.74l-3.43-0.18
			c-68.2-3.5-73.77-3.79-138.35,13.23l-6.12,1.59C279.84,269.12,279.41,269.17,279,269.17z" />
	</g>
        <g>
		<path class="st1" d="M282,354.14c-1.82,0-3.57-0.99-4.45-2.72c-1.26-2.46-0.29-5.47,2.17-6.73l3.1-1.59
			c17.11-8.77,36.3-13.53,55.52-13.77c0.02,0,0.04,0,0.06,0c2.73,0,4.96,2.2,5,4.94c0.03,2.76-2.18,5.03-4.94,5.06
			c-17.68,0.22-35.35,4.6-51.09,12.67l-3.1,1.59C283.55,353.96,282.77,354.14,282,354.14z" />
	</g>
        <g>
		<path class="st1" d="M282,311.13c-1.82,0-3.57-0.99-4.45-2.72c-1.26-2.46-0.29-5.47,2.17-6.73l3.1-1.59
			c17.1-8.77,36.3-13.53,55.52-13.77c0.02,0,0.04,0,0.06,0c2.73,0,4.96,2.2,5,4.94c0.03,2.76-2.18,5.03-4.94,5.06
			c-17.68,0.22-35.35,4.6-51.09,12.67l-3.1,1.59C283.55,310.95,282.77,311.13,282,311.13z" />
	</g>
</g>
</svg>
