<?xml version="1.0" encoding="utf-8"?><!-- Generator: Adobe Illustrator 26.0.1, SVG Export Plug-In . SVG Version: 6.00 Build 0)  -->
<svg style="enable-background:new 0 0 512 512;" id="Layer_1" version="1.1" viewBox="0 0 512 512"
    x="0px" xmlns="http://www.w3.org/2000/svg" y="0px" xml:space="preserve">
<style type="text/css">
	.st0{fill:#018544;}
	.st1{display:none;fill:#018544;}
</style>
    <g>
	<g>
		<path class="st0" d="M170.9,68.52h-26.25v14.12h24.17c1.78,0,3.11,0.4,3.98,1.2c0.88,0.8,1.31,1.85,1.31,3.16
			c0,1.31-0.43,2.37-1.29,3.2c-0.86,0.82-2.2,1.24-4,1.24h-24.17v16.36h27.15c1.83,0,3.21,0.43,4.14,1.28
			c0.93,0.85,1.39,1.98,1.39,3.39c0,1.36-0.46,2.47-1.39,3.32c-0.93,0.85-2.31,1.28-4.14,1.28h-31.66c-2.54,0-4.36-0.56-5.47-1.69
			c-1.11-1.12-1.67-2.94-1.67-5.45V66.67c0-1.67,0.25-3.04,0.75-4.1c0.5-1.06,1.28-1.83,2.33-2.31c1.06-0.48,2.41-0.73,4.06-0.73
			h30.76c1.86,0,3.24,0.41,4.14,1.24s1.35,1.9,1.35,3.24c0,1.36-0.45,2.45-1.35,3.28C174.14,68.11,172.76,68.52,170.9,68.52z" />
        <path class="st0" d="M184.48,105.87l12.87-18.79l-10.83-16.71c-1.02-1.62-1.79-3.01-2.3-4.18c-0.51-1.16-0.77-2.28-0.77-3.35
			c0-1.1,0.49-2.09,1.47-2.96c0.98-0.88,2.18-1.31,3.59-1.31c1.62,0,2.88,0.48,3.79,1.43c0.9,0.96,2.15,2.73,3.75,5.32l8.63,13.97
			l9.22-13.97c0.76-1.18,1.41-2.18,1.94-3.02c0.54-0.84,1.05-1.53,1.55-2.08c0.5-0.55,1.05-0.96,1.67-1.24
			c0.61-0.27,1.33-0.41,2.14-0.41c1.46,0,2.66,0.44,3.59,1.31c0.93,0.88,1.39,1.92,1.39,3.12c0,1.75-1.01,4.13-3.02,7.14
			l-11.34,16.95l12.2,18.79c1.1,1.65,1.9,3.02,2.39,4.1c0.5,1.09,0.75,2.11,0.75,3.08c0,0.92-0.22,1.75-0.67,2.51
			c-0.45,0.76-1.07,1.36-1.88,1.8c-0.81,0.44-1.73,0.67-2.75,0.67c-1.1,0-2.03-0.23-2.79-0.69c-0.76-0.46-1.37-1.03-1.84-1.71
			c-0.47-0.68-1.35-2-2.63-3.96l-10.12-15.93l-10.75,16.4c-0.84,1.31-1.43,2.22-1.79,2.75c-0.35,0.52-0.78,1.03-1.28,1.53
			c-0.5,0.5-1.09,0.89-1.77,1.18c-0.68,0.29-1.48,0.43-2.39,0.43c-1.41,0-2.58-0.43-3.51-1.29c-0.93-0.86-1.39-2.12-1.39-3.77
			C181.62,111.04,182.57,108.67,184.48,105.87z" />
        <path class="st0" d="M271.94,110.54l-2.75-7.22H245.8l-2.75,7.38c-1.07,2.88-1.99,4.82-2.75,5.83c-0.76,1.01-2,1.51-3.73,1.51
			c-1.47,0-2.76-0.54-3.88-1.61c-1.12-1.07-1.69-2.29-1.69-3.65c0-0.78,0.13-1.6,0.39-2.43c0.26-0.84,0.69-2,1.29-3.49l14.71-37.35
			c0.42-1.07,0.92-2.36,1.51-3.86c0.59-1.5,1.22-2.75,1.88-3.75c0.67-0.99,1.54-1.8,2.63-2.41c1.08-0.61,2.43-0.92,4.02-0.92
			c1.62,0,2.98,0.31,4.06,0.92c1.09,0.61,1.96,1.41,2.63,2.37c0.67,0.97,1.23,2.01,1.69,3.12c0.46,1.11,1.04,2.6,1.75,4.45
			l15.03,37.12c1.18,2.82,1.77,4.88,1.77,6.16c0,1.33-0.56,2.56-1.67,3.67c-1.11,1.11-2.45,1.67-4.02,1.67
			c-0.92,0-1.7-0.16-2.35-0.49c-0.65-0.33-1.2-0.77-1.65-1.33c-0.44-0.56-0.92-1.43-1.43-2.59
			C272.74,112.46,272.3,111.43,271.94,110.54z M248.87,94.57h17.18l-8.67-23.74L248.87,94.57z" />
        <path class="st0" d="M312.35,108.38l-9.22-36.65v39.71c0,2.2-0.49,3.85-1.47,4.94c-0.98,1.1-2.28,1.65-3.9,1.65
			c-1.57,0-2.85-0.54-3.85-1.63c-0.99-1.08-1.49-2.74-1.49-4.96V65.93c0-2.51,0.65-4.2,1.96-5.08c1.31-0.88,3.07-1.31,5.3-1.31h3.61
			c2.17,0,3.75,0.2,4.73,0.59s1.71,1.1,2.18,2.12s1.01,2.68,1.61,4.98l8.36,31.51l8.36-31.51c0.6-2.3,1.14-3.96,1.61-4.98
			s1.2-1.73,2.18-2.12s2.56-0.59,4.73-0.59h3.61c2.22,0,3.99,0.44,5.3,1.31c1.31,0.88,1.96,2.57,1.96,5.08v45.51
			c0,2.2-0.49,3.85-1.47,4.94c-0.98,1.1-2.3,1.65-3.94,1.65c-1.54,0-2.81-0.55-3.81-1.65c-0.99-1.1-1.49-2.75-1.49-4.94V71.74
			l-9.22,36.65c-0.6,2.38-1.09,4.13-1.47,5.24c-0.38,1.11-1.08,2.13-2.1,3.04c-1.02,0.92-2.43,1.37-4.24,1.37
			c-1.36,0-2.51-0.29-3.45-0.88s-1.67-1.34-2.2-2.26c-0.52-0.92-0.94-1.93-1.24-3.04C312.97,110.74,312.66,109.59,312.35,108.38z" />
	</g>
        <g>
		<path class="st0" d="M387.35,229.21H166.38c-4.31,0-7.81-3.5-7.81-7.81c0-4.31,3.5-7.81,7.81-7.81h220.98
			c4.31,0,7.81,3.5,7.81,7.81C395.16,225.72,391.67,229.21,387.35,229.21z" />
	</g>
        <g>
		<path class="st0" d="M132.06,337.66H90.76c-8.77,0-15.9-7.13-15.9-15.9v-41.29c0-8.77,7.13-15.9,15.9-15.9h41.29
			c8.77,0,15.9,7.13,15.9,15.9v41.29C147.96,330.53,140.83,337.66,132.06,337.66z M90.76,280.18c-0.15,0-0.28,0.13-0.28,0.28v41.29
			c0,0.15,0.13,0.28,0.28,0.28h41.29c0.15,0,0.28-0.13,0.28-0.28v-41.29c0-0.15-0.13-0.28-0.28-0.28H90.76z" />
	</g>
        <g>
		<path class="st0" d="M387.35,331.74H166.38c-4.31,0-7.81-3.5-7.81-7.81c0-4.31,3.5-7.81,7.81-7.81h220.98
			c4.31,0,7.81,3.5,7.81,7.81C395.16,328.24,391.67,331.74,387.35,331.74z" />
	</g>
        <g>
		<path class="st0" d="M132.06,435.11H90.76c-8.77,0-15.9-7.13-15.9-15.9v-41.29c0-8.77,7.13-15.9,15.9-15.9h41.29
			c8.77,0,15.9,7.13,15.9,15.9v41.29C147.96,427.98,140.83,435.11,132.06,435.11z M90.76,377.64c-0.15,0-0.28,0.13-0.28,0.28v41.29
			c0,0.15,0.13,0.28,0.28,0.28h41.29c0.15,0,0.28-0.13,0.28-0.28v-41.29c0-0.15-0.13-0.28-0.28-0.28H90.76z" />
	</g>
        <g>
		<path class="st0" d="M381.69,494.27H75.52c-14.15,0-25.67-11.51-25.67-25.67V43.4c0-14.15,11.52-25.67,25.67-25.67h318.07
			c14.15,0,25.67,11.52,25.67,25.67v302.1c5.42,0.92,10.65,2.4,15.62,4.4V43.4c0-22.77-18.52-41.29-41.29-41.29H75.52
			c-22.77,0-41.29,18.52-41.29,41.29V468.6c0,22.77,18.52,41.29,41.29,41.29h318.07c12.15,0,23.09-5.28,30.65-13.66
			c-5.74,1.37-11.71,2.11-17.86,2.11C397.74,498.36,389.44,496.91,381.69,494.27z" />
            <path class="st0" d="M158.56,421.38c0,4.31,3.5,7.81,7.81,7.81h163.41c-0.26-2.57-0.39-5.18-0.39-7.81s0.13-5.24,0.39-7.81H166.38
			C162.06,413.56,158.56,417.06,158.56,421.38z" />
            <path class="st0" d="M424.82,444.08c0.82,0.97,1.52,1.66,2.11,2.08c0.59,0.41,1.24,0.68,1.96,0.81c0.72,0.13,1.52,0.06,2.4-0.2
			c1.5-0.45,2.63-1.36,3.38-2.74c0.09-0.16,0.14-0.31,0.21-0.47c0.55-1.21,0.68-2.39,0.35-3.52c-0.08-0.26-0.2-0.55-0.35-0.87
			c-0.55-1.16-1.58-2.67-3.1-4.54l-12.53-15.71l-12.44-15.6c-1.21-1.58-2.19-2.84-2.94-3.77c-0.75-0.94-1.59-1.77-2.5-2.51
			c-0.91-0.74-1.98-1.25-3.19-1.53c-1.22-0.28-2.6-0.19-4.16,0.27c-1.53,0.45-2.73,1.13-3.59,2.03c-0.87,0.9-1.48,1.92-1.83,3.06
			c-0.36,1.14-0.6,2.52-0.74,4.13c-0.14,1.61-0.25,2.99-0.35,4.13l-0.39,4.44l-1.36,15.62l-1.74,19.93
			c-0.15,1.6-0.24,2.84-0.25,3.72c-0.01,0.88,0.09,1.69,0.32,2.44c0.39,1.3,1.27,2.31,2.65,3.02c1.38,0.71,2.78,0.85,4.18,0.44
			c1.65-0.49,2.7-1.33,3.14-2.51c0.44-1.18,0.77-3.3,0.98-6.37l0.54-7.85l22.42-6.65l1.25,1.64l3.43,4.5
			C423.29,442.24,424,443.1,424.82,444.08z M396.03,432.75l1.41-25.18l15.06,20.29L396.03,432.75z" />
            <polygon class="st0" points="439.9,410.24 445.56,408.56 443.08,400.2 451.53,397.7 449.82,391.95 441.38,394.46 438.89,386.06
			434.88,387.25 433.23,387.74 434.88,393.3 435.72,396.14 434.88,396.39 427.32,398.63 429.03,404.37 434.88,402.64 437.43,401.88 
					" />
            <path class="st0" d="M477.78,421.38c0-39.37-32.03-71.4-71.4-71.4s-71.4,32.03-71.4,71.4s32.03,71.4,71.4,71.4
			S477.78,460.75,477.78,421.38z M346.13,421.38c0-33.22,27.02-60.24,60.24-60.24c33.22,0,60.24,27.02,60.24,60.24
			s-27.02,60.24-60.24,60.24C373.16,481.62,346.13,454.59,346.13,421.38z" />
	</g>
        <g>
		<path class="st1" d="M116.69,219.09l-3.95-3.95l-15.08-15.08c-2.53-2.53-3.92-5.89-3.92-9.47s1.39-6.94,3.92-9.47
			c1.69-1.69,3.76-2.86,6.01-3.46H90.76c-0.15,0-0.28,0.13-0.28,0.28v41.29c0,0.15,0.13,0.28,0.28,0.28h41.29
			c0.15,0,0.28-0.13,0.28-0.28v-15.79l-11.7,11.7L116.69,219.09z" />
            <path class="st1"
                d="M116.69,181.21l3.55-3.55h-9.65c2.25,0.6,4.32,1.77,6.01,3.46L116.69,181.21z" />
            <path class="st0" d="M132.34,219.24c0,0.15-0.13,0.28-0.28,0.28H90.76c-0.15,0-0.28-0.13-0.28-0.28v-41.29
			c0-0.15,0.13-0.28,0.28-0.28h12.91c1.12-0.3,2.27-0.46,3.46-0.46c1.18,0,2.34,0.17,3.46,0.46h9.65l15.24-15.24
			c-1.1-0.24-2.25-0.38-3.43-0.38H90.76c-8.77,0-15.9,7.13-15.9,15.9v41.29c0,8.77,7.13,15.9,15.9,15.9h41.29
			c8.77,0,15.9-7.13,15.9-15.9v-31.41l-15.62,15.62V219.24z" />
            <path class="st0" d="M147.96,177.94v1.99l8.16-8.16c3.05-3.05,3.05-8,0-11.05c-1.53-1.53-3.52-2.29-5.52-2.29
			c-2,0-4,0.76-5.52,2.29L141,164.8C145.2,167.67,147.96,172.49,147.96,177.94z" />
            <path class="st0" d="M112.66,185.07c-1.53-1.53-3.52-2.29-5.52-2.29c-2,0-4,0.76-5.52,2.29c-3.05,3.05-3.05,8,0,11.05l15.08,15.08
			l15.65-15.65v-17.61c0-0.15-0.13-0.28-0.28-0.28h-3.92l-11.44,11.44L112.66,185.07z" />
            <path class="st0" d="M132.34,177.94v17.61l15.62-15.62v-1.99c0-5.46-2.76-10.28-6.96-13.14l-12.86,12.86h3.92
			C132.21,177.66,132.34,177.79,132.34,177.94z" />
	</g>
</g>
</svg>
