<?xml version="1.0" encoding="utf-8"?><!-- Generator: Adobe Illustrator 26.0.1, SVG Export Plug-In . SVG Version: 6.00 Build 0)  -->
<svg style="enable-background:new 0 0 512 512;" id="Layer_1" version="1.1" viewBox="0 0 512 512"
    x="0px" xmlns="http://www.w3.org/2000/svg" y="0px" xml:space="preserve">
<style type="text/css">
	.st0{fill:#018544;}
</style>
    <g>
	<path class="st0" d="M456.23,121.5H397v14h59.23c13.11,0,23.77,10.66,23.77,23.77v264.46c0,13.11-10.66,23.77-23.77,23.77H55.77
		C42.66,447.5,32,436.84,32,423.73V159.27c0-13.11,10.66-23.77,23.77-23.77H115v-14H55.77C34.94,121.5,18,138.44,18,159.27v264.46
		c0,20.83,16.94,37.77,37.77,37.77h400.46c20.83,0,37.77-16.94,37.77-37.77V159.27C494,138.44,477.06,121.5,456.23,121.5z" />
        <rect class="st0" height="14" width="194" x="159" y="121.5" />
        <path class="st0" d="M353,141.65c0,9.57,7.78,17.35,17.35,17.35h9.3c9.57,0,17.35-7.78,17.35-17.35v-6.15v-14v-20.15
		c0-9.57-7.78-17.35-17.35-17.35h-9.3c-9.57,0-17.35,7.78-17.35,17.35v20.15v14V141.65z M367,101.35c0-1.82,1.53-3.35,3.35-3.35h9.3
		c1.82,0,3.35,1.53,3.35,3.35v20.15v14v6.15c0,1.82-1.53,3.35-3.35,3.35h-9.3c-1.82,0-3.35-1.53-3.35-3.35v-6.15v-14V101.35z" />
        <path class="st0" d="M115,141.65c0,9.57,7.78,17.35,17.35,17.35h9.3c9.57,0,17.35-7.78,17.35-17.35v-6.15v-14v-20.15
		c0-9.57-7.78-17.35-17.35-17.35h-9.3c-9.57,0-17.35,7.78-17.35,17.35v20.15v14V141.65z M129,101.35c0-1.82,1.53-3.35,3.35-3.35h9.3
		c1.82,0,3.35,1.53,3.35,3.35v20.15v14v6.15c0,1.82-1.53,3.35-3.35,3.35h-9.3c-1.82,0-3.35-1.53-3.35-3.35v-6.15v-14V101.35z" />
</g>
    <g>
	<path class="st0"
        d="M458.5,206h-405c-3.87,0-7-3.13-7-7s3.13-7,7-7h405c3.87,0,7,3.13,7,7S462.37,206,458.5,206z" />
</g>
    <g>
	<path class="st0" d="M95.72,286.96v20.51h31.3v-20.51c0-2.93,0.66-5.13,1.98-6.59s3.05-2.2,5.2-2.2c2.18,0,3.95,0.72,5.3,2.17
		c1.35,1.45,2.03,3.65,2.03,6.62v56.4c0,2.96-0.68,5.18-2.05,6.64s-3.12,2.2-5.27,2.2c-2.18,0-3.92-0.74-5.22-2.22
		c-1.3-1.48-1.95-3.69-1.95-6.62v-24.07h-31.3v24.07c0,2.96-0.68,5.18-2.05,6.64s-3.12,2.2-5.27,2.2c-2.18,0-3.92-0.74-5.22-2.22
		c-1.3-1.48-1.95-3.69-1.95-6.62v-56.4c0-2.93,0.64-5.13,1.93-6.59c1.29-1.46,3.04-2.2,5.25-2.2c2.18,0,3.95,0.72,5.3,2.17
		C95.05,281.8,95.72,284,95.72,286.96z" />
        <path class="st0" d="M206.07,325.1c0,3.97-0.62,7.63-1.86,10.99c-1.24,3.35-3.03,6.23-5.37,8.64c-2.34,2.41-5.14,4.26-8.4,5.54
		c-3.26,1.29-6.92,1.93-10.99,1.93c-4.04,0-7.67-0.65-10.89-1.95s-6.01-3.17-8.37-5.59c-2.36-2.42-4.15-5.29-5.37-8.59
		c-1.22-3.3-1.83-6.96-1.83-10.96c0-4.04,0.62-7.73,1.86-11.08c1.24-3.35,3.01-6.22,5.32-8.59c2.31-2.38,5.11-4.21,8.4-5.49
		c3.29-1.29,6.92-1.93,10.89-1.93c4.04,0,7.7,0.65,10.99,1.95c3.29,1.3,6.1,3.16,8.45,5.57c2.34,2.41,4.13,5.27,5.35,8.59
		S206.07,321.1,206.07,325.1z M192.69,325.1c0-5.44-1.2-9.67-3.59-12.7s-5.61-4.54-9.64-4.54c-2.6,0-4.9,0.68-6.88,2.03
		c-1.99,1.35-3.52,3.34-4.59,5.98s-1.61,5.71-1.61,9.23c0,3.48,0.53,6.53,1.59,9.13c1.06,2.6,2.57,4.6,4.54,5.98
		c1.97,1.38,4.29,2.08,6.96,2.08c4.04,0,7.25-1.52,9.64-4.57C191.5,334.68,192.69,330.47,192.69,325.1z" />
        <path class="st0" d="M216.57,344.09v-57.81c0-2.67,0.59-4.69,1.78-6.05c1.19-1.37,2.79-2.05,4.81-2.05c2.02,0,3.65,0.68,4.88,2.03
		c1.24,1.35,1.86,3.38,1.86,6.08v57.81c0,2.7-0.63,4.73-1.88,6.08c-1.25,1.35-2.87,2.03-4.86,2.03c-1.95,0-3.54-0.7-4.76-2.1
		S216.57,346.7,216.57,344.09z" />
        <path class="st0" d="M250.41,291.8c-1.86,0-3.44-0.57-4.76-1.71c-1.32-1.14-1.98-2.75-1.98-4.83c0-1.89,0.67-3.44,2.03-4.66
		c1.35-1.22,2.92-1.83,4.71-1.83c1.72,0,3.25,0.55,4.59,1.66c1.33,1.11,2,2.72,2,4.83c0,2.05-0.65,3.65-1.95,4.81
		C253.75,291.22,252.2,291.8,250.41,291.8z M257,305.57v38.53c0,2.67-0.63,4.69-1.9,6.05s-2.88,2.05-4.83,2.05s-3.54-0.7-4.76-2.1
		s-1.83-3.4-1.83-6.01v-38.13c0-2.64,0.61-4.62,1.83-5.96c1.22-1.33,2.81-2,4.76-2s3.56,0.67,4.83,2
		C256.37,301.34,257,303.19,257,305.57z" />
        <path class="st0" d="M307.29,344.58v-1.32c-1.79,2.05-3.56,3.72-5.3,5c-1.74,1.29-3.63,2.26-5.66,2.93c-2.04,0.67-4.26,1-6.67,1
		c-3.19,0-6.14-0.68-8.86-2.03c-2.72-1.35-5.07-3.28-7.06-5.79c-1.99-2.51-3.49-5.45-4.52-8.84c-1.03-3.38-1.54-7.05-1.54-10.99
		c0-8.33,2.03-14.83,6.1-19.48c4.07-4.65,9.42-6.98,16.06-6.98c3.84,0,7.08,0.66,9.72,1.98s5.21,3.34,7.71,6.08v-19.68
		c0-2.73,0.54-4.8,1.64-6.2c1.09-1.4,2.64-2.1,4.66-2.1c2.02,0,3.57,0.64,4.66,1.93c1.09,1.29,1.64,3.18,1.64,5.69v58.79
		c0,2.54-0.59,4.44-1.76,5.71s-2.69,1.9-4.54,1.9c-1.82,0-3.33-0.66-4.52-1.98C307.89,348.9,307.29,347.02,307.29,344.58z
		 M281.07,325c0,3.61,0.56,6.69,1.68,9.23s2.66,4.45,4.61,5.74c1.95,1.29,4.08,1.93,6.4,1.93c2.34,0,4.48-0.61,6.42-1.83
		c1.94-1.22,3.48-3.09,4.64-5.62c1.16-2.52,1.73-5.67,1.73-9.45c0-3.55-0.58-6.6-1.73-9.16c-1.16-2.55-2.72-4.51-4.69-5.86
		c-1.97-1.35-4.13-2.03-6.47-2.03c-2.44,0-4.62,0.69-6.54,2.08c-1.92,1.38-3.41,3.37-4.47,5.96
		C281.6,318.58,281.07,321.58,281.07,325z" />
        <path class="st0" d="M366.96,344.68c-3.22,2.51-6.34,4.39-9.35,5.64c-3.01,1.25-6.39,1.88-10.13,1.88c-3.42,0-6.42-0.68-9.01-2.03
		s-4.58-3.18-5.98-5.49c-1.4-2.31-2.1-4.82-2.1-7.52c0-3.65,1.16-6.75,3.47-9.33c2.31-2.57,5.48-4.3,9.52-5.18
		c0.85-0.2,2.95-0.63,6.3-1.32c3.35-0.68,6.23-1.31,8.62-1.88c2.39-0.57,4.99-1.26,7.79-2.08c-0.16-3.52-0.87-6.1-2.12-7.74
		c-1.25-1.64-3.85-2.47-7.79-2.47c-3.39,0-5.93,0.47-7.64,1.42c-1.71,0.94-3.17,2.36-4.39,4.25c-1.22,1.89-2.08,3.13-2.59,3.74
		c-0.5,0.6-1.59,0.9-3.25,0.9c-1.5,0-2.79-0.48-3.88-1.44c-1.09-0.96-1.64-2.19-1.64-3.69c0-2.34,0.83-4.62,2.49-6.84
		c1.66-2.21,4.25-4.04,7.76-5.47c3.52-1.43,7.89-2.15,13.13-2.15c5.86,0,10.46,0.69,13.82,2.08c3.35,1.38,5.72,3.57,7.1,6.57
		c1.38,3,2.08,6.97,2.08,11.91c0,3.12-0.01,5.78-0.02,7.96c-0.02,2.18-0.04,4.61-0.07,7.28c0,2.51,0.42,5.12,1.25,7.84
		c0.83,2.72,1.25,4.47,1.25,5.25c0,1.37-0.64,2.61-1.93,3.74c-1.29,1.12-2.74,1.68-4.37,1.68c-1.37,0-2.72-0.64-4.05-1.93
		C369.88,348.99,368.46,347.12,366.96,344.68z M366.08,325.39c-1.95,0.72-4.79,1.47-8.52,2.27c-3.73,0.8-6.31,1.38-7.74,1.76
		c-1.43,0.38-2.8,1.11-4.1,2.2c-1.3,1.09-1.95,2.61-1.95,4.57c0,2.02,0.76,3.74,2.29,5.15c1.53,1.42,3.53,2.12,6.01,2.12
		c2.64,0,5.07-0.58,7.3-1.73c2.23-1.16,3.87-2.64,4.91-4.47c1.2-2.02,1.81-5.34,1.81-9.96V325.39z" />
        <path class="st0" d="M403.68,353.86l1.22-2.98l-16.41-41.31c-1.01-2.38-1.51-4.1-1.51-5.18c0-1.14,0.29-2.2,0.88-3.17
		s1.39-1.76,2.42-2.34s2.09-0.88,3.2-0.88c1.92,0,3.37,0.61,4.35,1.83s1.84,2.97,2.59,5.25l11.28,32.81l10.69-30.52
		c0.85-2.47,1.61-4.41,2.29-5.81c0.68-1.4,1.41-2.34,2.17-2.83c0.76-0.49,1.85-0.73,3.25-0.73c1.01,0,1.98,0.27,2.91,0.81
		s1.64,1.26,2.15,2.17c0.5,0.91,0.76,1.87,0.76,2.88c-0.13,0.62-0.34,1.5-0.63,2.64c-0.29,1.14-0.65,2.29-1.07,3.47l-17.38,45.51
		c-1.5,4-2.96,7.14-4.39,9.42c-1.43,2.28-3.33,4.03-5.69,5.25c-2.36,1.22-5.54,1.83-9.55,1.83c-3.91,0-6.84-0.42-8.79-1.27
		c-1.95-0.85-2.93-2.39-2.93-4.64c0-1.53,0.46-2.71,1.39-3.54s2.3-1.25,4.13-1.25c0.72,0,1.42,0.1,2.1,0.29
		c0.85,0.2,1.58,0.29,2.2,0.29c1.53,0,2.73-0.23,3.61-0.68c0.88-0.46,1.67-1.25,2.37-2.37
		C401.96,357.69,402.77,356.04,403.68,353.86z" />
</g>
</svg>
