<?xml version="1.0" encoding="utf-8"?><!-- Generator: Adobe Illustrator 26.0.1, SVG Export Plug-In . SVG Version: 6.00 Build 0)  -->
<svg style="enable-background:new 0 0 512 512;" id="Layer_1" version="1.1" viewBox="0 0 512 512"
    x="0px" xmlns="http://www.w3.org/2000/svg" y="0px" xml:space="preserve">
<style type="text/css">
	.st0{fill:#018544;}
	.st1{fill:none;stroke:#018544;stroke-width:15.1595;stroke-miterlimit:10;}
</style>
    <g>
	<path class="st0" d="M257.71,433.58h-0.98l-0.94-0.25c-73.62-19.3-151.45-19.3-225.07,0l-0.94,0.25h-0.98
		c-5.72,0-10.37-4.47-10.37-9.96V98.38c0-5.09,3.99-9.3,9.12-9.89c15.65-4.08,31.74-7.35,47.85-9.74l2.22,15
		c-14.81,2.2-29.61,5.17-44.04,8.84v314.37c71.91-17.69,147.43-17.69,219.34,0V102.59c-3.6-0.92-7.23-1.79-10.83-2.61l3.37-14.78
		c4.49,1.02,9.03,2.13,13.5,3.29c5.13,0.59,9.13,4.8,9.13,9.89v325.23C268.08,429.11,263.43,433.58,257.71,433.58z" />
</g>
    <g>
	<path class="st1" d="M243.77,92.59" />
</g>
    <path class="st1" d="M76.51,86.25" />
    <g>
	<path class="st0" d="M258.35,435.58h-1.25l-1.19-0.4c-9.13-3.11-18.51-6.53-27.58-9.84c-48.16-17.58-97.95-35.76-143.8-20.16
		l-1.19,0.4h-1.25c-5.37,0-9.73-4.47-9.73-9.96V70.38c0-4.9,3.48-8.99,8.04-9.81c50.67-16.88,102.75,2.13,153.13,20.52
		c8.75,3.19,17.78,6.49,26.53,9.48c4.55,0.83,8.02,4.91,8.02,9.81v325.23C268.08,431.11,263.71,435.58,258.35,435.58z
		 M122.17,384.02c37.22,0,74.74,13.7,111.36,27.07c6.39,2.33,12.92,4.72,19.39,7V104.15c-8.18-2.83-16.51-5.87-24.59-8.82
		c-47.11-17.2-95.8-34.98-140.81-21.12v314.23C99.01,385.35,110.58,384.02,122.17,384.02z" />
</g>
    <g>
	<path class="st0" d="M492.21,433.58h-0.98l-0.95-0.25c-73.62-19.3-151.45-19.3-225.07,0l-0.95,0.25h-0.98
		c-5.72,0-10.37-4.47-10.37-9.96V98.38c0-5.09,3.99-9.3,9.13-9.89c75.71-19.72,155.7-19.72,231.41,0c5.13,0.59,9.13,4.8,9.13,9.89
		v325.23C502.58,429.11,497.93,433.58,492.21,433.58z M377.75,403.7c36.86,0,73.72,4.42,109.67,13.26V102.59
		c-71.82-18.31-147.52-18.31-219.34,0v314.37C304.03,408.12,340.89,403.7,377.75,403.7z" />
</g>
    <g>
	<path class="st0" d="M407.94,137.58H358.7c-4.19,0-7.58-3.39-7.58-7.58s3.39-7.58,7.58-7.58h49.24c4.19,0,7.58,3.39,7.58,7.58
		S412.13,137.58,407.94,137.58z" />
</g>
    <g>
	<path class="st0" d="M453.96,163.58H312.09c-4.19,0-7.58-3.39-7.58-7.58s3.39-7.58,7.58-7.58h141.87c4.19,0,7.58,3.39,7.58,7.58
		S458.15,163.58,453.96,163.58z" />
</g>
    <g>
	<path class="st0" d="M197.55,331.96c-0.62,0-1.25-0.08-1.88-0.26l-17.27-4.82c-5.52-1.54-11.22-2.4-16.95-2.55L148.76,324
		c-3.86-0.1-6.91-3.32-6.81-7.18c0.1-3.87,3.28-6.93,7.18-6.81l12.69,0.34c6.87,0.18,13.71,1.21,20.33,3.06l17.27,4.82
		c3.72,1.04,5.9,4.9,4.86,8.62C203.42,329.94,200.61,331.96,197.55,331.96z" />
</g>
    <g>
	<path class="st0" d="M355.52,328.85c-2.29,0-4.58-0.6-6.67-1.81c-4.18-2.41-6.67-6.73-6.67-11.56v-64.62
		c0-4.82,2.49-9.15,6.67-11.56c4.18-2.41,9.17-2.41,13.35,0l55.96,32.31c4.18,2.41,6.67,6.73,6.67,11.56s-2.5,9.14-6.67,11.56
		l-55.96,32.31C360.1,328.25,357.81,328.85,355.52,328.85z M356.17,252v62.35l54-31.18L356.17,252z" />
</g>
</svg>
