<?xml version="1.0" encoding="utf-8"?><!-- Generator: Adobe Illustrator 26.0.1, SVG Export Plug-In . SVG Version: 6.00 Build 0)  -->
<svg style="enable-background:new 0 0 512 512;" id="Layer_1" version="1.1" viewBox="0 0 512 512"
    x="0px" xmlns="http://www.w3.org/2000/svg" y="0px" xml:space="preserve">
<style type="text/css">
	.st0{fill:#FFFFFF;stroke:#018544;stroke-width:21.5033;stroke-linecap:round;stroke-miterlimit:10;}
	.st1{fill:#FFFFFF;stroke:#018544;stroke-width:20;stroke-linecap:round;stroke-miterlimit:10;}
	.st2{fill:#FFFFFF;stroke:#018544;stroke-width:17.3682;stroke-linecap:round;stroke-miterlimit:10;}
	.st3{fill:#FFFFFF;stroke:#018544;stroke-width:20.7555;stroke-linecap:round;stroke-miterlimit:10;}
	.st4{fill:#231F20;stroke:#018544;stroke-width:16;stroke-miterlimit:10;}
	.st5{fill:none;stroke:#018544;stroke-width:20;stroke-linecap:round;stroke-miterlimit:10;}
</style>
    <path class="st0" d="M74.96,370c-2.58,0,119.66,0,119.66,0" />
    <path class="st1" d="M335.49,128.5c-2.23,0,103.51,0,103.51,0" />
    <g>
	<path class="st2" d="M52.53,128.5c-3.47,0,160.95,0,160.95,0" />
        <path class="st2" d="M132.98,208.95c0,3.47,0-160.95,0-160.95" />
</g>
    <g>
	<path class="st3" d="M319,449.48c-2.94,2.94,136-136,136-136" />
        <path class="st3" d="M454.95,449.48c2.94,2.94-136-136-136-136" />
</g>
    <circle class="st4" cx="134.77" cy="320.5" r="7.5" />
    <circle class="st4" cx="134.77" cy="419.5" r="7.5" />
    <g>
	<line class="st5" x1="17" x2="495" y1="256" y2="256" />
        <line class="st5" x1="256" x2="256" y1="41.5" y2="470.5" />
</g>
</svg>
