<?xml version="1.0" encoding="utf-8"?><!-- Generator: Adobe Illustrator 26.0.1, SVG Export Plug-In . SVG Version: 6.00 Build 0)  -->
<svg style="enable-background:new 0 0 512 512;" id="Layer_1" version="1.1" viewBox="0 0 512 512"
    x="0px" xmlns="http://www.w3.org/2000/svg" y="0px" xml:space="preserve">
<style type="text/css">
	.st0{fill:#018544;}
</style>
    <g>
	<g>
		<path class="st0" d="M426.6,261.99h-14.57V37.35c0-8.56-6.96-15.53-15.53-15.53H115.08c-8.56,0-15.53,6.96-15.53,15.53v225.97
			H84.98V37.35c0-16.6,13.5-30.1,30.1-30.1H396.5c16.6,0,30.1,13.5,30.1,30.1V261.99z" />
	</g>
        <g>
		<path class="st0" d="M479.36,504.75H32.22c-13.88,0-25.17-11.29-25.17-25.17V238.4h14.57v241.17c0,5.84,4.75,10.6,10.6,10.6
			h447.15c5.84,0,10.6-4.75,10.6-10.6V238.54h14.57v241.04C504.54,493.45,493.24,504.75,479.36,504.75z" />
	</g>
        <g>
		<polygon class="st0"
            points="257.21,378.03 30.38,227.75 38.43,215.6 257.16,360.52 474.35,214.82 482.47,226.92 		" />
	</g>
        <g>
		<path class="st0" d="M255.79,218.7c-11.78,0-21.37-9.59-21.37-21.37v-83.72c0-11.78,9.59-21.37,21.37-21.37
			c11.78,0,21.37,9.59,21.37,21.37v83.72C277.16,209.11,267.57,218.7,255.79,218.7z M255.79,106.82c-3.75,0-6.79,3.05-6.79,6.79
			v83.72c0,3.75,3.05,6.79,6.79,6.79c3.75,0,6.79-3.05,6.79-6.79v-83.72C262.58,109.86,259.53,106.82,255.79,106.82z" />
	</g>
        <g>
		<path class="st0" d="M255.79,290.81c-11.61,0-21.05-9.44-21.05-21.05c0-11.61,9.44-21.05,21.05-21.05
			c11.61,0,21.05,9.44,21.05,21.05C276.84,281.37,267.4,290.81,255.79,290.81z M255.79,263.29c-3.57,0-6.48,2.9-6.48,6.48
			c0,3.57,2.9,6.48,6.48,6.48c3.57,0,6.48-2.91,6.48-6.48C262.27,266.19,259.36,263.29,255.79,263.29z" />
	</g>
        <g>
		<line class="st0" x1="21.41" x2="90.92" y1="224.52" y2="131.59" />
	</g>
        <g>
		
			<rect class="st0" height="140.77"
                transform="matrix(0.8175 -0.5759 0.5759 0.8175 -23.2172 297.8752)" width="14.57"
                x="451.18" y="115.19" />
	</g>
        <g>
		
			<rect class="st0" height="14.57"
                transform="matrix(0.5824 -0.8129 0.8129 0.5824 -129.1414 121.2311)" width="138.04"
                x="-15.6" y="179.02" />
	</g>
        <g>
		<g>
			<line class="st0" x1="32.66" x2="180.84" y1="498.71" y2="319.66" />

            <rect class="st0" height="14.57"
                transform="matrix(0.6376 -0.7704 0.7704 0.6376 -276.5455 230.5478)" width="232.42"
                x="-9.46" y="401.9" />
		</g>
            <g>
			<line class="st0" x1="477.52" x2="329.34" y1="498.71" y2="319.66" />

                <rect class="st0" height="232.42"
                    transform="matrix(0.7704 -0.6376 0.6376 0.7704 -168.2513 351.157)" width="14.57"
                    x="396.15" y="292.97" />
		</g>
	</g>
</g>
</svg>
