<?xml version="1.0" encoding="utf-8"?><!-- Generator: Adobe Illustrator 26.0.1, SVG Export Plug-In . SVG Version: 6.00 Build 0)  -->
<svg style="enable-background:new 0 0 512 512;" id="Layer_1" version="1.1" viewBox="0 0 512 512"
    x="0px" xmlns="http://www.w3.org/2000/svg" y="0px" xml:space="preserve">
<style type="text/css">
	.st0{fill:#018544;}
	.st1{fill:none;stroke:#018544;stroke-width:14;stroke-miterlimit:10;}
	.st2{fill:none;stroke:#018544;stroke-width:14;stroke-linecap:round;stroke-miterlimit:10;}
</style>
    <g>
	<g>
		<path class="st0"
            d="M355.91,22.76l-0.35-0.25L364.78,10c0.29,0.2,0.49,0.35,0.69,0.51L355.91,22.76z" />
	</g>
        <g>
		<path class="st0" d="M437.81,78.47c-0.37-0.51-0.79-1-1.25-1.43l-0.71-0.67c-0.01-0.01-0.01-0.02-0.02-0.03l-5.32,5.67l-1.25,1.33
			h-0.01l-4,4.26c-0.68-0.93-1.05-2.08-1.05-3.24v2.13c-0.65-0.97-1.04-2.08-1.15-3.23c-0.12-1.09,0.02-2.21,0.43-3.26
			c0.42-1.08,1.12-2.01,1.99-2.73c0.19-0.17,0.4-0.32,0.61-0.47c1.14-0.78,2.54-1.22,4.01-1.22l-6.51-0.09l-55.62-0.73l-4.29-55.46
			l-0.17-2.19c0.04,0.63-0.01,1.25-0.18,1.85c-0.37,1.33-1.23,2.51-2.43,3.25c-1.04,0.63-2.26,0.89-3.45,0.75
			c-0.32-0.03-0.65-0.09-0.97-0.19c-0.11-0.03-0.22-0.07-0.33-0.11c-0.04-0.01-0.08-0.02-0.12-0.04c-0.14-0.04-0.28-0.11-0.41-0.17
			c-0.17-0.09-0.33-0.18-0.49-0.28l0.88-1.37l3.31-5.17v-0.01l4.19-6.54c-0.47-0.31-0.93-0.6-1.41-0.88
			c-0.34-0.21-0.69-0.4-1.04-0.59c-0.01-0.01-0.01-0.01-0.02-0.01c0,0,0-0.01-0.01-0.01c-0.84-0.46-1.71-0.85-2.56-1.22
			C354.67,4.8,350.68,4,346.59,4H95.65C82.76,4,72.27,14.49,72.27,27.38v457.24c0,12.89,10.49,23.38,23.38,23.38h320.7
			c12.89,0,23.38-10.49,23.38-23.38V84.36C439.73,82.24,439.05,80.17,437.81,78.47z M424.19,484.62c0,4.32-3.52,7.84-7.84,7.84
			H95.65c-4.32,0-7.84-3.52-7.84-7.84V27.38c0-4.32,3.52-7.84,7.84-7.84h250.93c0.41,0,0.81,0.01,1.21,0.06c0.1,0,0.2,0.01,0.3,0.02
			l4.85,62.77c0.37,4.33,3.93,7.7,8.29,7.83l62.94,0.83V484.62z" />
	</g>
        <g>
		<path class="st0" d="M359.27,15.61c-0.02-0.01-0.05-0.02-0.07-0.03c0.33,0.22,0.65,0.45,0.97,0.69
			C359.87,16.04,359.58,15.81,359.27,15.61z" />
            <path class="st0" d="M356.34,23.12l-0.93-0.4l-0.03,0.04l0,0c-0.2-0.15-0.41-0.3-0.62-0.44l0.01-0.01l-0.17-0.12l2.56-3.6
			l2.23-3.47l2.75-7.05l0.95,0.36l0.75,0.52c0.32,0.22,0.64,0.45,0.95,0.68l0.18,0.14c0,0,0,0,0.01,0l-7.25,9.83L356.34,23.12z" />
	</g>
        <g>
		<path class="st0"
            d="M360.69,16.64c0.51,0.4,1.01,0.82,1.48,1.26C361.7,17.45,361.2,17.03,360.69,16.64z" />
            <path class="st0" d="M356.67,23.8C356.66,23.79,356.66,23.79,356.67,23.8L356.67,23.8C356.66,23.79,356.66,23.79,356.67,23.8
			c-0.29-0.27-0.6-0.54-0.95-0.81l9.94-12.71c0.73,0.57,1.38,1.13,2.01,1.71c0,0,0.01,0.01,0.01,0.01c0,0,0,0,0,0L356.67,23.8z" />
	</g>
        <g>
		<path class="st0" d="M430.5,82.01l-5.05-4.74l-1.89-1.78l-59.9-56.19l-0.34-0.33l-1.14-1.07c-0.48-0.44-0.97-0.85-1.48-1.27h-0.01
			c-0.17-0.13-0.34-0.24-0.51-0.38c-0.16-0.11-0.32-0.23-0.49-0.34c-0.12-0.1-0.26-0.19-0.39-0.27v-0.01
			c-0.01,0-0.01-0.01-0.02-0.02c-0.02,0-0.04-0.02-0.07-0.03c-0.03-0.02-0.06-0.03-0.09-0.04c-1.57-0.89-3.52,0.36-3.37,2.18
			l0.2,2.59l0.04,0.52l0.08,1.01l0.04,0.67v0.01l0.02,0.17l0.02,0.37l0.02,0.33l4.52,58.36c0.03,0.4,0.37,0.7,0.77,0.71l61.57,0.82
			l6.21,0.08h0.01l0.72,0.01C430.67,83.35,431.02,82.5,430.5,82.01z M411.27,75.04l-43.05-0.58l-3.32-42.93L411.27,75.04z" />
            <path class="st0" d="M437.81,78.47c-0.44-0.85-1.04-1.65-1.79-2.34L367.68,12c-0.26-0.24-0.52-0.49-0.8-0.72
			c-0.27-0.23-0.53-0.46-0.82-0.68c-0.07-0.06-0.13-0.12-0.2-0.17c-0.07-0.06-0.13-0.11-0.2-0.17c-0.21-0.16-0.42-0.31-0.7-0.5
			c-0.43-0.32-0.87-0.63-1.31-0.93l-0.2-0.12c-0.28-0.17-0.57-0.33-0.87-0.48c-0.01-0.01-0.02-0.01-0.03-0.02
			c-0.49-0.24-1-0.43-1.52-0.59c-0.01-0.01-0.01-0.01-0.02-0.01c0,0,0-0.01-0.01-0.01c-2.76-0.83-5.79-0.48-8.35,1.08
			c-3.35,2.04-5.25,5.74-4.95,9.65l0.1,1.27l4.86,62.81c0.38,4.48,4.06,7.97,8.57,8.09l62.96,0.84l5.78,0.08
			c3.65,0,6.88-2.2,8.23-5.6C439.16,83.37,438.98,80.7,437.81,78.47z M368.22,74.46l-3.32-42.93l46.37,43.51L368.22,74.46z" />
	</g>
</g>
    <g>
	<g>
		<path class="st0" d="M188.32,326.96h-46.99c-4.33,0-7.83-3.51-7.83-7.83c0-4.33,3.51-7.83,7.83-7.83h46.99
			c4.33,0,7.83,3.51,7.83,7.83C196.15,323.46,192.64,326.96,188.32,326.96z" />
	</g>
        <g>
		<path class="st0" d="M369.55,325.84h-137.6c-4.33,0-7.83-3.51-7.83-7.83c0-4.33,3.51-7.83,7.83-7.83h137.6
			c4.33,0,7.83,3.51,7.83,7.83C377.38,322.34,373.88,325.84,369.55,325.84z" />
	</g>
        <g>
		<path class="st0" d="M188.32,373.39h-46.99c-4.33,0-7.83-3.51-7.83-7.83c0-4.33,3.51-7.83,7.83-7.83h46.99
			c4.33,0,7.83,3.51,7.83,7.83C196.15,369.88,192.64,373.39,188.32,373.39z" />
	</g>
        <g>
		<path class="st0" d="M313.61,372.27h-81.67c-4.33,0-7.83-3.51-7.83-7.83c0-4.33,3.51-7.83,7.83-7.83h81.67
			c4.33,0,7.83,3.51,7.83,7.83C321.45,368.77,317.94,372.27,313.61,372.27z" />
	</g>
        <g>
		<path class="st0" d="M189.44,419.82h-46.99c-4.33,0-7.83-3.51-7.83-7.83c0-4.33,3.51-7.83,7.83-7.83h46.99
			c4.33,0,7.83,3.51,7.83,7.83C197.27,416.31,193.76,419.82,189.44,419.82z" />
	</g>
        <g>
		<path class="st0" d="M370.67,418.7h-137.6c-4.33,0-7.83-3.51-7.83-7.83c0-4.33,3.51-7.83,7.83-7.83h137.6
			c4.33,0,7.83,3.51,7.83,7.83C378.5,415.19,374.99,418.7,370.67,418.7z" />
	</g>
</g>
    <g>
	<path class="st1" d="M278.78,205.75l-22.91,14.02l-22.88-14c-8.83-5.4-15.57-13.69-18.9-23.49c-2.28-6.71-3.47-13.8-3.47-20.98
		v-43.08l1.05-0.09c14.34-1.25,28.16-5.94,40.31-13.66l3.88-2.47l4.54,2.84c12.29,7.68,26.26,12.27,40.7,13.38h0v43.08
		c0,7.7-1.36,15.28-3.97,22.42C293.77,192.94,287.16,200.63,278.78,205.75z" />
        <polyline class="st2" points="233.88,160.55 248.76,175.43 277.85,146.34 	" />
</g>
</svg>
