<?xml version="1.0" encoding="utf-8"?>
<!-- Generator: Adobe Illustrator 26.0.1, SVG Export Plug-In . SVG Version: 6.00 Build 0)  -->
<svg version="1.1" id="Layer_1" xmlns="http://www.w3.org/2000/svg" xmlns:xlink="http://www.w3.org/1999/xlink" x="0px" y="0px"
	 viewBox="0 0 512 512" style="enable-background:new 0 0 512 512;" xml:space="preserve">
<style type="text/css">
	.st0{fill:#018544;}
</style>
<g>
	<path class="st0" d="M424.27,41.52h-76.44c-3.21-7.69-10.79-13.1-19.65-13.1h-13.1v-5.35c0-9.71-7.87-17.58-17.58-17.58h-49.98
		c-9.71,0-17.58,7.87-17.58,17.58v5.35h-13.1c-8.85,0-16.44,5.41-19.65,13.1h-76.44c-14.72,0-26.7,11.98-26.7,26.7V479.8
		c0,14.72,11.98,26.7,26.7,26.7h303.52c14.72,0,26.7-11.98,26.7-26.7V68.22C450.97,53.5,439,41.52,424.27,41.52z M216.85,43.7h21.57
		c4.22,0,7.64-3.42,7.64-7.64c0-1.6-0.5-3.09-1.34-4.32c0.33-0.85,0.51-1.77,0.51-2.74v-3.16c0-2.8,2.27-5.06,5.06-5.06h41.87
		c4.22,0,7.64,3.42,7.64,7.64v0.58c0,0.96,0.18,1.87,0.51,2.72c-0.85,1.23-1.35,2.73-1.35,4.34c0,4.22,3.42,7.64,7.64,7.64h21.59
		c3.3,0,6,2.7,6,6v0c0,3.32-2.69,6-6,6H216.85c-3.32,0-6-2.69-6-6C210.84,46.39,213.53,43.7,216.85,43.7z M435.69,479.8
		c0,6.3-5.12,11.42-11.42,11.42H120.75c-6.3,0-11.42-5.12-11.42-11.42V68.22c0-6.3,5.12-11.42,11.42-11.42h76.04
		c2.92,8.26,10.78,14.19,20.05,14.19h111.33c9.26,0,17.12-5.93,20.05-14.19h76.05c6.3,0,11.42,5.12,11.42,11.42V479.8z"/>
	<path class="st0" d="M354.38,361.61c-15.89,0-28.82,12.93-28.82,28.82c0,15.89,12.93,28.82,28.82,28.82
		c15.89,0,28.82-12.93,28.82-28.82C383.19,374.54,370.27,361.61,354.38,361.61z M354.38,409.25c-10.38,0-18.82-8.44-18.82-18.82
		s8.44-18.82,18.82-18.82s18.82,8.44,18.82,18.82S364.75,409.25,354.38,409.25z"/>
	<path class="st0" d="M402.81,390.43c0-6.45-2.93-12.42-8.03-16.36c-0.19-0.15-0.29-0.39-0.26-0.63c0.75-5.89-1.06-11.83-4.99-16.29
		c-3.93-4.46-9.58-7.03-15.51-7.03c-0.88,0-1.77,0.06-2.65,0.17c-0.03,0-0.06,0.01-0.09,0.01c-0.21,0-0.41-0.1-0.54-0.27
		c-3.95-5.1-9.91-8.03-16.36-8.03c-6.45,0-12.42,2.93-16.36,8.03c-0.13,0.17-0.33,0.27-0.54,0.27c-0.03,0-0.06,0-0.09-0.01
		c-0.88-0.11-1.77-0.17-2.65-0.17c-5.92,0-11.57,2.56-15.51,7.03c-3.92,4.46-5.74,10.39-4.99,16.29c0.03,0.24-0.07,0.48-0.26,0.63
		c-5.1,3.95-8.03,9.91-8.03,16.36s2.93,12.42,8.03,16.36c0.19,0.15,0.29,0.39,0.26,0.63c-0.75,5.89,1.06,11.83,4.99,16.29
		c1.04,1.19,2.21,2.23,3.47,3.14l-11.16,20.75c-0.95,1.76-0.75,3.92,0.5,5.49c1.25,1.56,3.32,2.23,5.24,1.7l15.31-4.25l5.29,12.03
		c0.8,1.82,2.6,2.99,4.58,2.99c0.1,0,0.21,0,0.31-0.01c2.09-0.13,3.88-1.55,4.48-3.56l6.91-23.13c0.07,0,0.14,0.01,0.21,0.01
		c1.41,0,2.79-0.15,4.14-0.42l6.23,20.84c0.6,2.01,2.39,3.43,4.48,3.56c0.1,0.01,0.21,0.01,0.31,0.01c1.97,0,3.77-1.16,4.58-2.99
		l5.29-12.03l15.31,4.25c1.93,0.54,3.99-0.13,5.24-1.7c1.25-1.57,1.45-3.73,0.5-5.49l-11.22-20.87c0.1-0.1,0.2-0.2,0.29-0.31
		c3.92-4.46,5.74-10.39,4.99-16.29c-0.03-0.24,0.07-0.48,0.26-0.63C399.88,402.85,402.81,396.88,402.81,390.43z M341.57,446.09
		l-1.56-3.55c-1-2.28-3.52-3.47-5.92-2.8l-8.2,2.28l6.16-11.46c0.88,0.12,1.77,0.18,2.67,0.18c0.88,0,1.77-0.06,2.65-0.17
		c0.03,0,0.06-0.01,0.09-0.01c0.21,0,0.41,0.1,0.54,0.27c1.79,2.31,3.99,4.17,6.47,5.52L341.57,446.09z M377.91,437.03
		c-2.39-0.67-4.91,0.53-5.92,2.8l-1.56,3.55l-2.79-9.34c1.13-0.95,2.17-2.02,3.1-3.22c0.13-0.17,0.33-0.27,0.54-0.27
		c0.03,0,0.06,0,0.09,0.01c0.88,0.11,1.77,0.17,2.65,0.17c2.35,0,4.66-0.41,6.84-1.18l5.24,9.75L377.91,437.03z M388.66,398.88
		c-3,2.32-4.54,6.05-4.06,9.81v0c0.83,6.47-4.26,12.04-10.57,12.04c-0.46,0-0.92-0.03-1.38-0.09c-0.45-0.06-0.91-0.09-1.36-0.09
		c-3.28,0-6.41,1.51-8.45,4.15c-2.14,2.77-5.3,4.15-8.45,4.15s-6.31-1.38-8.45-4.15c-2.04-2.64-5.17-4.15-8.45-4.15
		c-0.45,0-0.9,0.03-1.36,0.09h0c-0.47,0.06-0.93,0.09-1.38,0.09c-6.32,0-11.4-5.57-10.57-12.04v0c0.48-3.76-1.07-7.49-4.06-9.81
		c-5.53-4.28-5.53-12.63,0-16.91c3-2.32,4.54-6.05,4.06-9.81c-0.83-6.47,4.26-12.04,10.57-12.04c0.46,0,0.92,0.03,1.38,0.09l0,0
		c0.45,0.06,0.91,0.09,1.36,0.09c3.28,0,6.41-1.51,8.45-4.15v0c2.14-2.77,5.3-4.15,8.45-4.15s6.31,1.38,8.45,4.15v0
		c2.04,2.64,5.17,4.15,8.45,4.15c0.45,0,0.9-0.03,1.36-0.09v0c0.47-0.06,0.93-0.09,1.38-0.09c6.32,0,11.4,5.57,10.57,12.04
		c-0.48,3.76,1.07,7.49,4.06,9.81C394.19,386.25,394.19,394.61,388.66,398.88z"/>
	<path class="st0" d="M286.87,180h-150c-3.87,0-7,3.13-7,7s3.13,7,7,7h150c3.87,0,7-3.13,7-7S290.73,180,286.87,180z"/>
	<path class="st0" d="M286.87,234h-150c-3.87,0-7,3.13-7,7s3.13,7,7,7h150c3.87,0,7-3.13,7-7S290.73,234,286.87,234z"/>
	<path class="st0" d="M286.87,288h-150c-3.87,0-7,3.13-7,7s3.13,7,7,7h150c3.87,0,7-3.13,7-7S290.73,288,286.87,288z"/>
	<path class="st0" d="M354.79,206.65c1.31,1.31,3.09,2.05,4.95,2.05s3.64-0.74,4.95-2.05l29.4-29.39c2.73-2.73,2.73-7.17,0-9.9
		c-2.73-2.73-7.17-2.73-9.9,0l-24.45,24.44l-9.41-9.41c-2.73-2.73-7.17-2.73-9.9,0s-2.73,7.17,0,9.9L354.79,206.65z"/>
	<path class="st0" d="M354.79,314.65c1.37,1.37,3.16,2.05,4.95,2.05c1.79,0,3.58-0.68,4.95-2.05l29.4-29.39
		c2.73-2.73,2.73-7.17,0-9.9c-2.73-2.73-7.17-2.73-9.9,0l-24.45,24.45l-9.41-9.41c-2.73-2.73-7.17-2.73-9.9,0
		c-2.73,2.73-2.73,7.17,0,9.9L354.79,314.65z"/>
	<path class="st0" d="M388.74,219.51c-2.73-2.73-7.17-2.73-9.9,0l-11.59,11.59l-11.59-11.59c-2.73-2.73-7.17-2.73-9.9,0
		c-2.73,2.73-2.73,7.17,0,9.9L357.36,241l-11.59,11.59c-2.73,2.73-2.73,7.17,0,9.9c1.37,1.37,3.16,2.05,4.95,2.05
		s3.58-0.68,4.95-2.05l11.59-11.59l11.59,11.59c1.37,1.37,3.16,2.05,4.95,2.05c1.79,0,3.58-0.68,4.95-2.05
		c2.73-2.73,2.73-7.17,0-9.9L377.16,241l11.59-11.59C391.47,226.68,391.47,222.25,388.74,219.51z"/>
</g>
</svg>
