<?xml version="1.0" encoding="utf-8"?><!-- Generator: Adobe Illustrator 26.0.1, SVG Export Plug-In . SVG Version: 6.00 Build 0)  -->
<svg style="enable-background:new 0 0 512 512;" id="Layer_1" version="1.1" viewBox="0 0 512 512"
    x="0px" xmlns="http://www.w3.org/2000/svg" y="0px" xml:space="preserve">
<style type="text/css">
	.st0{fill:#018544;}
</style>
    <g>
	<path class="st0" d="M326.12,323.33c-0.15,1.74-0.32,3.46-0.51,5.18c-3.78,37.43-10.53,71.68-19.87,100.09
		c-13.77,41.87-32.37,66.88-49.75,66.88s-35.98-25-49.75-66.88c-3.71-11.27-7-23.47-9.86-36.41c-5.29,1.92-10.53,3.74-15.71,5.44
		c2.88,12.81,6.17,24.9,9.87,36.12C207.39,484.94,230.02,512,256,512s48.61-27.06,65.45-78.25c10.77-32.74,18.2-72.84,21.8-116.48
		c0.14-1.75,0.28-3.49,0.41-5.24C337.93,315.85,332.07,319.62,326.12,323.33z M182.81,256c0-10.58,0.21-21.05,0.65-31.37
		c0.07-1.7,0.14-3.4,0.22-5.1c0.08-1.71,0.18-3.42,0.27-5.14c0.39-6.94,0.87-13.8,1.46-20.56c0.14-1.72,0.3-3.45,0.46-5.16
		c0.15-1.74,0.32-3.46,0.51-5.18c3.78-37.43,10.53-71.68,19.87-100.09c13.77-41.87,32.37-66.88,49.75-66.88s35.98,25,49.75,66.88
		c3.71,11.27,7,23.47,9.86,36.41c5.29-1.92,10.53-3.74,15.71-5.44c-2.88-12.81-6.17-24.9-9.87-36.12C304.61,27.06,281.98,0,256,0
		s-48.61,27.06-65.45,78.25c-10.77,32.74-18.2,72.84-21.8,116.48c-0.14,1.75-0.28,3.49-0.41,5.24c-0.13,1.74-0.25,3.47-0.35,5.22
		c-0.47,6.85-0.84,13.78-1.11,20.77c-0.07,1.71-0.14,3.44-0.19,5.16c-0.06,1.71-0.11,3.44-0.15,5.17
		c-0.17,6.53-0.25,13.1-0.25,19.72c0,38.28,2.81,75.31,8.15,108.88c5.22-1.75,10.49-3.64,15.84-5.65
		C185.38,327.35,182.81,292.3,182.81,256z" />
</g>
    <g>
	<path class="st0" d="M279.24,161.61c1.58-0.73,3.15-1.45,4.74-2.15c34.31-15.45,67.34-26.72,96.61-32.84
		c43.15-9.02,74.1-5.41,82.79,9.64s-3.66,43.66-33.04,76.52c-7.91,8.85-16.82,17.8-26.6,26.74c4.31,3.62,8.51,7.25,12.57,10.89
		c9.65-8.9,18.47-17.8,26.35-26.61c35.91-40.17,48.03-73.3,35.04-95.8c-12.99-22.5-47.74-28.57-100.49-17.56
		c-33.73,7.04-72.18,20.65-111.78,39.36c-1.58,0.75-3.17,1.5-4.75,2.26C266.87,155.12,273.06,158.31,279.24,161.61z M292.6,319.39
		c-9.16,5.29-18.34,10.34-27.49,15.12c-1.51,0.79-3.02,1.58-4.53,2.36c-1.52,0.78-3.05,1.56-4.58,2.33
		c-6.21,3.13-12.39,6.14-18.54,9.01c-1.56,0.74-3.13,1.47-4.7,2.18c-1.58,0.73-3.15,1.45-4.74,2.15
		c-34.31,15.45-67.34,26.72-96.61,32.84c-43.15,9.02-74.1,5.41-82.79-9.64c-8.69-15.05,3.66-43.66,33.04-76.52
		c7.91-8.85,16.82-17.8,26.6-26.74c-4.31-3.62-8.51-7.25-12.57-10.89c-9.65,8.9-18.47,17.8-26.35,26.61
		C33.42,328.37,21.31,361.5,34.3,384s47.74,28.57,100.49,17.56c33.73-7.04,72.18-20.65,111.78-39.36c1.58-0.75,3.17-1.5,4.75-2.26
		c1.57-0.76,3.13-1.52,4.7-2.3c6.17-3.01,12.35-6.16,18.54-9.42c1.52-0.79,3.05-1.6,4.56-2.42c1.51-0.8,3.03-1.63,4.55-2.45
		c5.74-3.12,11.47-6.34,17.2-9.64c33.16-19.14,63.81-40.09,90.22-61.49c-4.12-3.65-8.4-7.27-12.82-10.89
		C353.1,281.48,324.03,301.24,292.6,319.39z" />
</g>
    <g>
	<path class="st0" d="M162.63,283.07c-1.43-1-2.84-2.01-4.23-3.03c-30.53-21.99-56.81-44.96-76.74-67.25
		c-29.38-32.86-41.73-61.47-33.04-76.52s39.65-18.66,82.79-9.64c11.62,2.43,23.83,5.67,36.46,9.67c0.98-5.54,2.02-10.99,3.14-16.33
		c-12.53-3.91-24.65-7.1-36.22-9.52C82.04,99.43,47.29,105.5,34.3,128s-0.87,55.63,35.04,95.8c22.97,25.69,53.98,52.18,89.98,77.13
		c1.44,1,2.88,1.99,4.33,2.98C163.2,297.03,162.87,290.07,162.63,283.07z M292.6,192.61c9.16,5.29,18.12,10.71,26.84,16.25
		c1.44,0.91,2.87,1.82,4.3,2.74c1.44,0.93,2.88,1.87,4.31,2.8c5.82,3.81,11.51,7.66,17.08,11.55c1.42,0.98,2.84,1.98,4.24,2.98
		c1.43,1,2.84,2.01,4.23,3.03c30.53,21.99,56.81,44.96,76.74,67.25c29.38,32.86,41.73,61.47,33.04,76.52
		c-8.69,15.05-39.65,18.66-82.79,9.64c-11.62-2.43-23.83-5.67-36.46-9.67c-0.98,5.54-2.02,10.99-3.14,16.33
		c12.53,3.91,24.65,7.1,36.22,9.52c52.75,11.01,87.5,4.95,100.49-17.56c12.99-22.5,0.87-55.63-35.04-95.8
		c-22.97-25.69-53.98-52.18-89.98-77.13c-1.44-1-2.88-1.99-4.33-2.98c-1.44-0.98-2.88-1.95-4.34-2.92
		c-5.69-3.83-11.51-7.61-17.43-11.34c-1.45-0.92-2.9-1.84-4.37-2.74c-1.45-0.91-2.92-1.81-4.4-2.72
		c-5.57-3.41-11.22-6.77-16.95-10.07c-33.16-19.14-66.62-35.22-98.37-47.39c-1.1,5.39-2.1,10.91-3.02,16.55
		C229.52,159.17,261.16,174.46,292.6,192.61z" />
</g>
    <circle class="st0" cx="320.52" cy="99.58" r="22.96" />
    <circle class="st0" cx="361.01" cy="387.84" r="22.96" />
    <circle class="st0" cx="89.39" cy="277.78" r="22.96" />
</svg>
