<?xml version="1.0" encoding="utf-8"?><!-- Generator: Adobe Illustrator 26.0.1, SVG Export Plug-In . SVG Version: 6.00 Build 0)  -->
<svg style="enable-background:new 0 0 512 512;" id="Layer_1" version="1.1" viewBox="0 0 512 512"
    x="0px" xmlns="http://www.w3.org/2000/svg" y="0px" xml:space="preserve">
<style type="text/css">
	.st0{fill:#018544;}
</style>
    <g>
	<g>
		<g>
			<path class="st0" d="M132.91,316.86c-1.74,0-3.51-0.3-5.24-0.92L97.35,304.9c-3.86-1.4-6.95-4.24-8.69-7.97
				c-1.75-3.74-1.93-7.93-0.52-11.79l8.38-23.01c1.44-3.97,0.19-8.5-3.12-11.27l-0.21-0.18c-3.31-2.78-7.99-3.24-11.65-1.12
				L60.32,261.8c-7.36,4.25-16.81,1.71-21.06-5.64l-16.13-27.94c-4.24-7.37-1.71-16.81,5.64-21.06l21.19-12.24
				c3.66-2.11,5.61-6.39,4.85-10.66l-0.05-0.3c-0.74-4.23-4.03-7.58-8.2-8.32l-24.1-4.25c-4.04-0.71-7.58-2.96-9.95-6.34
				c-2.36-3.37-3.28-7.46-2.57-11.51l5.6-31.78c1.48-8.38,9.5-13.99,17.87-12.51l24.09,4.25c4.16,0.73,8.4-1.29,10.56-5.02l0.1-0.18
				c2.21-3.81,1.84-8.5-0.88-11.75L51.58,77.81c-2.64-3.14-3.9-7.14-3.54-11.25c0.36-4.11,2.29-7.83,5.44-10.47l24.72-20.74
				c3.15-2.64,7.14-3.9,11.25-3.54c4.11,0.36,7.82,2.29,10.47,5.44l15.72,18.74c2.72,3.24,7.28,4.42,11.36,2.93l0.25-0.09
				c4.06-1.47,6.79-5.3,6.79-9.53V24.83c0-8.5,6.92-15.42,15.42-15.42h32.26c8.5,0,15.42,6.92,15.42,15.42v24.45
				c0,4.23,2.73,8.06,6.79,9.53l0.24,0.09c4.09,1.49,8.65,0.32,11.37-2.92l15.72-18.74c2.64-3.15,6.36-5.08,10.47-5.44
				c4.11-0.36,8.11,0.9,11.25,3.54l24.71,20.74c3.16,2.65,5.09,6.37,5.45,10.49c0.35,4.11-0.91,8.1-3.55,11.25l-15.72,18.74
				c-2.72,3.24-3.09,7.94-0.91,11.69l0.14,0.24c2.15,3.73,6.39,5.75,10.56,5.02l24.1-4.25c4.05-0.72,8.14,0.19,11.52,2.56
				c3.38,2.37,5.63,5.9,6.35,9.94l5.6,31.77c0.71,4.06-0.2,8.15-2.56,11.52c-2.37,3.38-5.9,5.63-9.95,6.34l-24.1,4.25
				c-4.16,0.73-7.46,4.08-8.2,8.33l-0.05,0.3c-0.75,4.24,1.2,8.53,4.86,10.64l21.19,12.23c7.36,4.25,9.89,13.7,5.65,21.06
				l-16.13,27.94c-4.25,7.36-13.7,9.89-21.06,5.65l-21.22-12.25c-3.66-2.11-8.34-1.66-11.65,1.12l-0.21,0.18
				c-3.31,2.77-4.56,7.3-3.12,11.27l8.38,23.02c1.41,3.86,1.22,8.05-0.53,11.79c-1.74,3.74-4.83,6.57-8.69,7.97l-30.32,11.04
				c-7.99,2.9-16.86-1.24-19.76-9.22l-8.32-22.85c-1.48-4.06-5.38-6.79-9.7-6.79c0,0,0,0-0.01,0h-0.26c0,0,0,0-0.01,0
				c-4.33,0-8.22,2.73-9.7,6.79l-8.32,22.85C145.15,312.97,139.22,316.86,132.91,316.86z M165.72,261.13
				c11,0,20.91,6.94,24.67,17.28l8.14,22.36l29.33-10.68l-8.2-22.52c-3.73-10.25-0.57-21.88,7.86-28.94l0.18-0.15
				c8.42-7.09,20.43-8.19,29.88-2.73l20.76,11.98l15.61-27.04l-20.74-11.97c-9.44-5.45-14.5-16.4-12.58-27.24l0.05-0.27
				c1.88-10.81,10.38-19.37,21.13-21.26l23.59-4.16L300,125.04l-23.59,4.16c-10.74,1.89-21.64-3.23-27.14-12.76l-0.12-0.2
				c-5.53-9.54-4.53-21.57,2.49-29.93l15.39-18.35l-23.91-20.06l-15.39,18.33c-7.02,8.36-18.69,11.44-29.04,7.65l-0.21-0.08
				c-10.35-3.76-17.3-13.61-17.3-24.52V25.35h-31.22v23.93c0,10.91-6.95,20.76-17.29,24.52l-0.23,0.08
				c-10.34,3.78-22.01,0.7-29.03-7.66L88.03,47.89L64.12,67.96L79.52,86.3c7.02,8.37,8.02,20.39,2.49,29.93l-0.12,0.2
				c-5.5,9.53-16.4,14.66-27.14,12.77l-23.59-4.16l-5.42,30.74l23.59,4.16c10.75,1.9,19.25,10.46,21.13,21.3l0.05,0.27
				c1.91,10.81-3.14,21.76-12.58,27.21l-20.74,11.97l15.61,27.04l20.76-11.99c9.45-5.46,21.46-4.36,29.88,2.73l0.1,0.08
				c8.52,7.13,11.68,18.77,7.95,29.01l-8.2,22.52l29.33,10.68l8.14-22.36c3.76-10.34,13.68-17.28,24.68-17.28c0.01,0,0.01,0,0.02,0
				h0.25C165.71,261.13,165.72,261.13,165.72,261.13z" />
		</g>
        <g>
			<path class="st0" d="M165.58,245.03c-45.16,0-81.9-36.74-81.9-81.89s36.74-81.9,81.9-81.9s81.9,36.74,81.9,81.9
				S210.74,245.03,165.58,245.03z M165.58,97.18c-36.37,0-65.95,29.59-65.95,65.95s29.59,65.95,65.95,65.95s65.95-29.59,65.95-65.95
				S201.95,97.18,165.58,97.18z" />
		</g>
	</g>
        <g>
		<g>
			<path class="st0" d="M341.82,502.59c-1.61,0-3.25-0.27-4.85-0.85l-25.61-9.33c-7.39-2.69-11.22-10.89-8.53-18.28l7.07-19.44
				c1.04-2.86,0.13-6.14-2.27-8.14l-0.18-0.15c-2.4-2.02-5.78-2.35-8.42-0.82l-17.92,10.34c-6.82,3.93-15.55,1.58-19.48-5.22
				l-13.63-23.6c-3.93-6.81-1.58-15.55,5.22-19.48l17.9-10.34c2.64-1.52,4.04-4.62,3.5-7.72l-0.02-0.13
				c-0.56-3.19-2.93-5.61-5.94-6.14l-20.35-3.59c-3.74-0.65-7.01-2.74-9.2-5.86c-2.19-3.12-3.03-6.9-2.37-10.65l4.73-26.84
				c1.37-7.75,8.79-12.93,16.53-11.57l20.35,3.59c3,0.53,6.07-0.94,7.63-3.64l0.12-0.2c1.57-2.72,1.32-6.11-0.65-8.45l-13.28-15.83
				c-2.44-2.9-3.61-6.59-3.28-10.39c0.33-3.8,2.12-7.25,5.03-9.7l20.87-17.52c2.91-2.44,6.62-3.6,10.41-3.27
				c3.8,0.33,7.24,2.12,9.68,5.03l13.28,15.83c1.96,2.34,5.26,3.18,8.22,2.11l0.22-0.08c2.94-1.07,4.92-3.83,4.92-6.88v-20.65
				c0-7.86,6.4-14.26,14.26-14.26h27.25c7.86,0,14.26,6.4,14.26,14.26v20.65c0,3.05,1.97,5.82,4.92,6.88l0.23,0.08
				c2.94,1.08,6.25,0.23,8.21-2.11l13.28-15.82c2.45-2.91,5.88-4.7,9.68-5.03c3.8-0.33,7.5,0.83,10.41,3.27l20.87,17.51
				c2.92,2.45,4.71,5.9,5.04,9.7c0.33,3.8-0.84,7.49-3.29,10.4l-13.28,15.82c-1.96,2.34-2.22,5.74-0.65,8.45l0.13,0.23
				c1.55,2.68,4.61,4.15,7.61,3.62l20.35-3.59c7.74-1.37,15.15,3.82,16.52,11.56l4.73,26.84c1.36,7.76-3.84,15.17-11.58,16.52
				l-20.34,3.59c-3,0.53-5.38,2.95-5.92,6.03l-0.05,0.28c-0.54,3.05,0.87,6.15,3.51,7.68l17.9,10.33
				c6.81,3.93,9.15,12.67,5.22,19.48l-13.62,23.6c-3.94,6.8-12.67,9.15-19.48,5.23l-17.92-10.35c-2.64-1.52-6.02-1.19-8.42,0.82
				l-0.18,0.15c-2.4,2.01-3.31,5.28-2.27,8.14l7.07,19.44c1.3,3.57,1.13,7.45-0.49,10.91c-1.61,3.45-4.47,6.07-8.04,7.37l-25.6,9.32
				c-7.39,2.68-15.59-1.14-18.28-8.52l-7.02-19.3c-1.07-2.94-3.89-4.92-7.03-4.92c0,0,0,0,0,0h-0.23c0,0,0,0,0,0
				c-3.13,0-5.95,1.98-7.03,4.92l-7.02,19.3C353.13,498.99,347.65,502.59,341.82,502.59z M318.39,478l22.45,8.17l6.45-17.72
				c3.36-9.22,12.2-15.41,22.01-15.41c0,0,0.01,0,0.02,0l0.21,7.97l-0.01-7.97c0,0,0.01,0,0.02,0c9.81,0,18.65,6.19,22.01,15.41
				l6.45,17.72l22.45-8.17l-6.5-17.86c-3.33-9.14-0.51-19.52,7.01-25.82l0.23-0.19c7.43-6.26,18.14-7.24,26.58-2.37l16.46,9.5
				l11.94-20.69l-16.44-9.49c-8.42-4.86-12.93-14.63-11.23-24.3l0.03-0.14c1.69-9.72,9.27-17.36,18.86-19.05l18.7-3.3l-4.15-23.52
				l-18.7,3.3c-9.58,1.69-19.31-2.88-24.21-11.38l-0.12-0.21c-4.91-8.46-4.01-19.19,2.25-26.65l12.2-14.55l-18.3-15.35l-12.2,14.54
				c-6.26,7.46-16.67,10.21-25.9,6.83l-0.18-0.07c-9.22-3.35-15.42-12.13-15.42-21.87v-18.97h-23.89v18.97
				c0,9.74-6.2,18.52-15.42,21.87l-0.12,0.04c-9.29,3.39-19.7,0.65-25.96-6.81l-12.2-14.54l-18.3,15.35l12.2,14.55
				c6.26,7.46,7.16,18.19,2.22,26.7l-0.1,0.17c-4.9,8.49-14.63,13.07-24.21,11.38l-18.7-3.3l-4.15,23.52l18.7,3.3
				c9.59,1.69,17.17,9.33,18.86,18.99l-7.82,1.58l7.84-1.42c1.72,9.71-2.8,19.47-11.22,24.33l-16.44,9.49l11.94,20.69l16.46-9.5
				c8.43-4.87,19.14-3.89,26.66,2.43l0.22,0.18c7.45,6.24,10.27,16.62,6.94,25.76L318.39,478z M487.74,364.01
				C487.74,364.01,487.73,364.01,487.74,364.01L487.74,364.01z" />
		</g>
            <g>
			<path class="st0" d="M369.41,441.92c-38.82,0-70.41-31.58-70.41-70.41s31.58-70.41,70.41-70.41s70.41,31.58,70.41,70.41
				S408.23,441.92,369.41,441.92z M369.41,317.05c-30.03,0-54.46,24.43-54.46,54.46s24.43,54.46,54.46,54.46
				c30.03,0,54.46-24.43,54.46-54.46S399.44,317.05,369.41,317.05z" />
		</g>
	</g>
</g>
</svg>
