<?xml version="1.0" encoding="utf-8"?><!-- Generator: Adobe Illustrator 26.0.1, SVG Export Plug-In . SVG Version: 6.00 Build 0)  -->
<svg style="enable-background:new 0 0 512 512;" id="Layer_1" version="1.1" viewBox="0 0 512 512"
    x="0px" xmlns="http://www.w3.org/2000/svg" y="0px" xml:space="preserve">
<style type="text/css">
	.st0{fill:#018544;}
</style>
    <g>
	<g>
		<path class="st0" d="M381.56,440.05H31.49c-14.19,0-25.73-11.54-25.73-25.73V93.54c0-14.19,11.54-25.73,25.73-25.73h428.33
			c14.19,0,25.73,11.54,25.73,25.73v242.51l-12.11-11.16c-13.5-12.43-31.04-19.28-49.4-19.28c-40.21,0-72.92,32.71-72.92,72.92
			c0,18.36,6.85,35.9,19.28,49.4L381.56,440.05z M31.49,82.25c-6.23,0-11.29,5.06-11.29,11.29v320.78c0,6.23,5.06,11.29,11.29,11.29
			h318.94c-8.94-13.96-13.75-30.23-13.75-47.07c0-48.17,39.19-87.36,87.36-87.36c16.84,0,33.11,4.81,47.07,13.75V93.54
			c0-6.23-5.06-11.29-11.29-11.29H31.49z" />
	</g>
        <g>
		<g>
			<path class="st0" d="M132.42,98.81c-4,0-7.24-3.24-7.24-7.24V53.31c0-4,3.24-7.24,7.24-7.24s7.24,3.24,7.24,7.24v38.26
				C139.66,95.57,136.42,98.81,132.42,98.81z" />
		</g>
            <g>
			<path class="st0" d="M358.89,98.81c-4,0-7.24-3.24-7.24-7.24V53.31c0-4,3.24-7.24,7.24-7.24s7.24,3.24,7.24,7.24v38.26
				C366.13,95.57,362.89,98.81,358.89,98.81z" />
		</g>
	</g>
        <g>
		<rect class="st0" height="14.44" width="465.35" x="10.14" y="137.61" />
	</g>
        <g>
		<path class="st0" d="M421.72,465.92c-24.34,0-47.76-10.27-64.28-28.19c-14.9-16.18-23.11-37.2-23.11-59.2
			c0-48.18,39.2-87.38,87.38-87.38c22,0,43.02,8.21,59.2,23.1c17.91,16.52,28.19,39.94,28.19,64.28
			C509.1,426.72,469.9,465.92,421.72,465.92z M421.72,305.64c-40.2,0-72.9,32.7-72.9,72.9c0,18.35,6.84,35.89,19.27,49.39
			c13.78,14.95,33.33,23.52,53.63,23.52c40.2,0,72.9-32.7,72.9-72.9c0-20.3-8.57-39.85-23.52-53.63
			C457.61,312.48,440.07,305.64,421.72,305.64z" />
	</g>
        <g>
		<g>
			<path class="st0" d="M421.72,405.38c-4,0-7.24-3.24-7.24-7.24v-38.26c0-4,3.24-7.24,7.24-7.24s7.24,3.24,7.24,7.24v38.26
				C428.96,402.14,425.71,405.38,421.72,405.38z" />
		</g>
            <g>
			<path class="st0" d="M423.77,405.12c-2.5,0-4.93-1.3-6.28-3.62c-2-3.46-0.81-7.89,2.65-9.89l33.14-19.13
				c3.46-2,7.89-0.81,9.89,2.65c2,3.46,0.81,7.89-2.65,9.89l-33.14,19.13C426.24,404.81,425,405.12,423.77,405.12z" />
		</g>
	</g>
        <g>
		<circle class="st0" cx="111.14" cy="181.03" r="13.44" />
	</g>
        <g>
		<circle class="st0" cx="169.74" cy="181.03" r="13.44" />
	</g>
        <g>
		<circle class="st0" cx="228.34" cy="181.03" r="13.44" />
	</g>
        <g>
		<circle class="st0" cx="286.94" cy="181.03" r="13.44" />
	</g>
        <g>
		<circle class="st0" cx="345.54" cy="181.03" r="13.44" />
	</g>
        <g>
		<circle class="st0" cx="52.54" cy="230.41" r="13.44" />
	</g>
        <g>
		<circle class="st0" cx="111.14" cy="230.41" r="13.44" />
	</g>
        <g>
		<circle class="st0" cx="169.74" cy="230.41" r="13.44" />
	</g>
        <g>
		<circle class="st0" cx="228.34" cy="230.41" r="13.44" />
	</g>
        <g>
		<circle class="st0" cx="286.94" cy="230.41" r="13.44" />
	</g>
        <g>
		<circle class="st0" cx="345.54" cy="230.41" r="13.44" />
	</g>
        <g>
		<circle class="st0" cx="52.54" cy="279.78" r="13.44" />
	</g>
        <g>
		<circle class="st0" cx="111.14" cy="279.78" r="13.44" />
	</g>
        <g>
		<circle class="st0" cx="169.74" cy="279.78" r="13.44" />
	</g>
        <g>
		<circle class="st0" cx="228.34" cy="279.78" r="13.44" />
	</g>
        <g>
		<circle class="st0" cx="286.94" cy="279.78" r="13.44" />
	</g>
        <g>
		<circle class="st0" cx="345.54" cy="279.78" r="13.44" />
	</g>
        <g>
		<circle class="st0" cx="52.54" cy="323.48" r="13.44" />
	</g>
        <g>
		<circle class="st0" cx="111.14" cy="323.48" r="13.44" />
	</g>
        <g>
		<circle class="st0" cx="169.74" cy="323.48" r="13.44" />
	</g>
        <g>
		<circle class="st0" cx="228.34" cy="323.48" r="13.44" />
	</g>
        <g>
		<circle class="st0" cx="286.94" cy="323.48" r="13.44" />
	</g>
        <g>
		<circle class="st0" cx="52.54" cy="372.85" r="13.44" />
	</g>
        <g>
		<circle class="st0" cx="111.14" cy="372.85" r="13.44" />
	</g>
        <g>
		<circle class="st0" cx="169.74" cy="372.85" r="13.44" />
	</g>
        <g>
		<circle class="st0" cx="228.34" cy="372.85" r="13.44" />
	</g>
        <g>
		<circle class="st0" cx="404.14" cy="181.03" r="13.44" />
	</g>
        <g>
		<circle class="st0" cx="404.14" cy="230.41" r="13.44" />
	</g>
        <g>
		<circle class="st0" cx="404.14" cy="279.78" r="13.44" />
	</g>
</g>
</svg>
