<?xml version="1.0" encoding="utf-8"?><!-- Generator: Adobe Illustrator 26.0.1, SVG Export Plug-In . SVG Version: 6.00 Build 0)  -->
<svg style="enable-background:new 0 0 512 512;" id="Layer_1" version="1.1" viewBox="0 0 512 512"
    x="0px" xmlns="http://www.w3.org/2000/svg" y="0px" xml:space="preserve">
<style type="text/css">
	.st0{fill:#018544;}
	.st1{display:none;fill:#018544;}
	.st2{fill:#018544;stroke:#018544;stroke-width:10.5943;stroke-linecap:round;stroke-miterlimit:10;}
</style>
    <g>
	<g>
		<g>
			<path class="st0" d="M303.92,199.91h0.22v15.34c0,3.77-3.06,6.83-6.83,6.83h-73.43c-3.77,0-6.83-3.06-6.83-6.83v-15.34h0.23
				c-16.56-13.1-27.06-33.52-26.59-56.39c0.78-37.38,31.4-67.83,68.78-68.42c39.13-0.62,71.05,30.92,71.05,69.91
				C330.52,167.28,320.11,187.1,303.92,199.91z" />
            <path class="st0" d="M297.3,229.5h-73.43c-7.86,0-14.25-6.39-14.25-14.25v-12.06c-17.28-15.11-26.84-36.7-26.35-59.82
				c0.42-20.01,8.53-38.87,22.85-53.11c14.31-14.24,33.22-22.25,53.23-22.57c20.91-0.34,40.61,7.56,55.5,22.21
				c14.89,14.66,23.09,34.23,23.09,55.12c0,22.48-9.56,43.46-26.38,58.18v12.05C311.55,223.11,305.16,229.5,297.3,229.5z
				 M224.46,214.67h72.26v-7.34h-14.14l16.74-13.23c15.12-11.95,23.79-29.84,23.79-49.07c0-16.88-6.63-32.7-18.66-44.55
				c-12.03-11.84-28-18.22-44.86-17.95c-33.21,0.52-60.78,27.96-61.48,61.16c-0.41,19.77,8.25,38.14,23.77,50.41l16.74,13.23h-14.15
				V214.67z" />
		</g>
        <g>
			<path class="st0" d="M284.02,264.95h-46.86c-3.93,0-7.14-3.21-7.14-7.14v-5.86c0-3.93,3.21-7.14,7.14-7.14h46.86
				c3.93,0,7.14,3.21,7.14,7.14v5.86C291.16,261.73,287.95,264.95,284.02,264.95z" />
            <path class="st0" d="M284.02,273.17h-46.86c-8.47,0-15.36-6.89-15.36-15.36v-5.86c0-8.47,6.89-15.36,15.36-15.36h46.86
				c8.47,0,15.36,6.89,15.36,15.36v5.86C299.39,266.28,292.5,273.17,284.02,273.17z M238.26,256.72h44.68v-3.68h-44.68V256.72z" />
		</g>
        <g>
			<path class="st1" d="M268.34,294.3h-21.58c-1.89,0-3.44-1.55-3.44-3.44v-3.18c0-1.89,1.55-3.44,3.44-3.44h21.58
				c1.89,0,3.44,1.55,3.44,3.44v3.18C271.78,292.75,270.23,294.3,268.34,294.3z" />
            <g>
				<path class="st0" d="M268.34,298.27h-21.58c-4.09,0-7.41-3.33-7.41-7.41v-3.18c0-4.09,3.33-7.41,7.41-7.41h21.58
					c4.09,0,7.42,3.33,7.42,7.41v3.18C275.75,294.95,272.43,298.27,268.34,298.27z M247.28,290.33h20.53v-2.12h-20.53V290.33z" />
			</g>
		</g>
        <g>
			<g>
				<g>
					<line class="st0" x1="365.18" x2="393.58" y1="133.02" y2="133.02" />
				</g>
                <g>
					<path class="st0" d="M393.58,138.32h-28.4c-2.93,0-5.3-2.37-5.3-5.3s2.37-5.3,5.3-5.3h28.4c2.93,0,5.3,2.37,5.3,5.3
						S396.51,138.32,393.58,138.32z" />
				</g>
			</g>
            <g>
				<g>
					<line class="st0" x1="347.05" x2="373.81" y1="94.68" y2="74.09" />
				</g>
                <g>
					<path class="st0" d="M347.06,99.98c-1.59,0-3.16-0.71-4.2-2.07c-1.78-2.32-1.35-5.64,0.97-7.43l26.75-20.59
						c2.32-1.78,5.64-1.35,7.43,0.97c1.78,2.32,1.35,5.64-0.97,7.43l-26.75,20.59C349.32,99.62,348.18,99.98,347.06,99.98z" />
				</g>
			</g>
            <g>
				<g>
					<line class="st0" x1="359.41" x2="382.36" y1="171.35" y2="187.64" />
				</g>
                <g>
					<path class="st0" d="M382.36,192.94c-1.06,0-2.13-0.32-3.06-0.98l-22.95-16.29c-2.38-1.69-2.95-5-1.25-7.39
						c1.69-2.39,5-2.95,7.39-1.25l22.95,16.29c2.38,1.69,2.95,5,1.25,7.39C385.65,192.16,384.02,192.94,382.36,192.94z" />
				</g>
			</g>
            <g>
				<g>
					<path class="st2" d="M359.1,171.35" />
				</g>
			</g>
            <g>
				<g>
					<path class="st2" d="M405.63,203.93" />
				</g>
			</g>
		</g>
        <g>
			<g>
				<g>
					<line class="st0" x1="156.01" x2="127.61" y1="133.02" y2="133.02" />
				</g>
                <g>
					<path class="st0" d="M156.01,138.32h-28.4c-2.93,0-5.3-2.37-5.3-5.3s2.37-5.3,5.3-5.3h28.4c2.93,0,5.3,2.37,5.3,5.3
						S158.94,138.32,156.01,138.32z" />
				</g>
			</g>
            <g>
				<g>
					<line class="st0" x1="174.14" x2="147.39" y1="94.68" y2="74.09" />
				</g>
                <g>
					<path class="st0" d="M174.14,99.98c-1.13,0-2.26-0.36-3.23-1.1l-26.75-20.59c-2.32-1.78-2.75-5.11-0.97-7.43
						s5.11-2.75,7.43-0.97l26.75,20.59c2.32,1.78,2.75,5.11,0.97,7.43C177.29,99.27,175.72,99.98,174.14,99.98z" />
				</g>
			</g>
            <g>
				<g>
					<line class="st0" x1="161.78" x2="138.83" y1="171.35" y2="187.64" />
				</g>
                <g>
					<path class="st0" d="M138.83,192.94c-1.66,0-3.29-0.78-4.32-2.23c-1.69-2.39-1.13-5.69,1.25-7.39l22.95-16.29
						c2.38-1.69,5.69-1.13,7.39,1.25c1.69,2.39,1.13,5.69-1.25,7.39l-22.95,16.29C140.96,192.62,139.89,192.94,138.83,192.94z" />
				</g>
			</g>
            <g>
				<g>
					<path class="st2" d="M162.09,171.35" />
				</g>
			</g>
            <g>
				<g>
					<path class="st2" d="M115.56,203.93" />
				</g>
			</g>
		</g>
	</g>
        <g>
		<path class="st0" d="M311.5,402.25l13-18.46c17.74-25.2,20.98-47.14,21.4-57.56H38.37c-19.62,0-35.58-15.96-35.58-35.58V47.16
			c0-19.62,15.96-35.58,35.58-35.58h435.25c19.62,0,35.58,15.96,35.58,35.58v243.5c0,19.62-15.96,35.58-35.58,35.58h-71.49
			c-24.01,53.21-67.34,68.23-69.22,68.86L311.5,402.25z M38.37,26.41c-11.44,0-20.74,9.31-20.74,20.74v243.5
			c0,11.44,9.31,20.74,20.74,20.74h321.22l0.88,6.4c0.15,1.1,2.79,21.99-10.05,50.49c13.13-9.85,29.24-26.29,39.98-52.31l1.89-4.59
			h81.32c11.44,0,20.74-9.31,20.74-20.74V47.16c0-11.44-9.31-20.74-20.74-20.74H38.37z" />
	</g>
        <g>
		<path class="st0" d="M484.55,508.71H27.45c-14.43,0-26.17-11.74-26.17-26.17v-47c0-14.43,11.74-26.17,26.17-26.17h457.11
			c14.43,0,26.17,11.74,26.17,26.17v47C510.72,496.97,498.98,508.71,484.55,508.71z M27.45,427.23c-4.58,0-8.3,3.72-8.3,8.3v47
			c0,4.58,3.72,8.3,8.3,8.3h457.11c4.58,0,8.3-3.72,8.3-8.3v-47c0-4.58-3.72-8.3-8.3-8.3H27.45z" />
	</g>
        <g>
		<g>
			<path class="st0" d="M193.84,442.58h-9.65v31.72c0,1.83-0.41,3.18-1.22,4.07c-0.81,0.88-1.87,1.33-3.16,1.33
				c-1.31,0-2.38-0.45-3.2-1.34c-0.82-0.89-1.24-2.24-1.24-4.05v-31.72h-9.65c-1.51,0-2.63-0.33-3.37-1
				c-0.73-0.67-1.1-1.54-1.1-2.64c0-1.13,0.38-2.03,1.15-2.68c0.76-0.66,1.87-0.98,3.32-0.98h28.12c1.53,0,2.67,0.34,3.41,1.01
				c0.75,0.67,1.12,1.56,1.12,2.65c0,1.09-0.38,1.97-1.13,2.64C196.48,442.25,195.35,442.58,193.84,442.58z" />
		</g>
            <g>
			<path class="st0" d="M222.02,434.54c4.53,0,8.41,0.92,11.66,2.76c3.25,1.84,5.7,4.45,7.37,7.83c1.67,3.39,2.5,7.36,2.5,11.93
				c0,3.38-0.46,6.44-1.37,9.2c-0.91,2.76-2.28,5.15-4.11,7.18c-1.83,2.03-4.07,3.57-6.73,4.65c-2.66,1.07-5.71,1.61-9.14,1.61
				c-3.42,0-6.47-0.55-9.17-1.65c-2.7-1.1-4.95-2.66-6.76-4.66c-1.81-2-3.17-4.42-4.1-7.24c-0.92-2.82-1.38-5.87-1.38-9.14
				c0-3.36,0.48-6.43,1.44-9.23c0.96-2.8,2.36-5.18,4.19-7.15c1.83-1.96,4.05-3.47,6.67-4.51
				C215.7,435.06,218.68,434.54,222.02,434.54z M234.58,457c0-3.2-0.52-5.97-1.55-8.31c-1.03-2.34-2.51-4.12-4.42-5.32
				c-1.92-1.2-4.12-1.8-6.6-1.8c-1.77,0-3.4,0.33-4.9,1c-1.5,0.67-2.79,1.63-3.87,2.9c-1.08,1.27-1.94,2.89-2.56,4.87
				c-0.62,1.98-0.94,4.19-0.94,6.66c0,2.48,0.31,4.73,0.94,6.73c0.63,2.01,1.51,3.67,2.65,4.99c1.14,1.32,2.45,2.31,3.93,2.96
				c1.48,0.66,3.1,0.98,4.87,0.98c2.26,0,4.34-0.57,6.24-1.7c1.9-1.13,3.41-2.88,4.53-5.24C234.02,463.36,234.58,460.46,234.58,457z
				" />
		</g>
            <g>
			<path class="st0" d="M268.06,461.94h-8.1v12.36c0,1.77-0.42,3.11-1.25,4.02c-0.83,0.91-1.89,1.37-3.16,1.37
				c-1.33,0-2.4-0.45-3.22-1.35c-0.81-0.9-1.22-2.23-1.22-3.98v-33.66c0-1.95,0.45-3.34,1.34-4.17s2.31-1.25,4.26-1.25h11.35
				c3.36,0,5.94,0.26,7.74,0.77c1.79,0.5,3.33,1.32,4.63,2.47c1.3,1.15,2.29,2.56,2.96,4.23c0.68,1.67,1.01,3.54,1.01,5.63
				c0,4.45-1.37,7.82-4.11,10.11C277.56,460.8,273.48,461.94,268.06,461.94z M265.92,441.93h-5.96v13.34h5.96
				c2.08,0,3.83-0.22,5.23-0.65c1.4-0.44,2.47-1.15,3.2-2.14c0.73-0.99,1.1-2.29,1.1-3.9c0-1.93-0.56-3.5-1.7-4.71
				C272.48,442.57,269.87,441.93,265.92,441.93z" />
		</g>
            <g>
			<path class="st0" d="M292.16,474.3v-34.4c0-1.79,0.41-3.13,1.22-4.02c0.81-0.89,1.87-1.34,3.16-1.34c1.33,0,2.41,0.44,3.23,1.33
				c0.82,0.88,1.24,2.23,1.24,4.04v34.4c0,1.81-0.41,3.16-1.24,4.05c-0.82,0.89-1.9,1.34-3.23,1.34c-1.27,0-2.32-0.45-3.14-1.35
				C292.57,477.44,292.16,476.09,292.16,474.3z" />
		</g>
            <g>
			<path class="st0" d="M348.1,465.16c0,1.39-0.34,2.89-1.03,4.51c-0.68,1.62-1.76,3.21-3.23,4.77c-1.47,1.56-3.35,2.83-5.63,3.8
				c-2.28,0.97-4.94,1.46-7.98,1.46c-2.3,0-4.4-0.22-6.28-0.65c-1.89-0.44-3.6-1.12-5.14-2.04c-1.54-0.92-2.95-2.14-4.24-3.65
				c-1.15-1.37-2.13-2.9-2.95-4.6c-0.81-1.7-1.42-3.51-1.83-5.44c-0.41-1.93-0.61-3.97-0.61-6.14c0-3.51,0.51-6.66,1.53-9.44
				c1.02-2.78,2.49-5.16,4.39-7.13c1.91-1.98,4.14-3.48,6.7-4.51c2.56-1.03,5.29-1.55,8.19-1.55c3.54,0,6.68,0.71,9.44,2.12
				s4.88,3.15,6.34,5.23c1.47,2.08,2.2,4.04,2.2,5.88c0,1.01-0.36,1.91-1.07,2.68c-0.71,0.77-1.58,1.16-2.59,1.16
				c-1.13,0-1.98-0.27-2.55-0.8c-0.57-0.54-1.2-1.46-1.89-2.77c-1.15-2.16-2.51-3.78-4.07-4.85s-3.48-1.61-5.76-1.61
				c-3.63,0-6.53,1.38-8.68,4.14c-2.16,2.76-3.23,6.68-3.23,11.77c0,3.39,0.48,6.22,1.43,8.47s2.3,3.94,4.05,5.05
				c1.75,1.11,3.79,1.67,6.13,1.67c2.54,0,4.69-0.63,6.45-1.89c1.76-1.26,3.08-3.11,3.98-5.55c0.38-1.15,0.84-2.09,1.4-2.82
				c0.56-0.72,1.45-1.09,2.68-1.09c1.05,0,1.96,0.37,2.71,1.1C347.72,463.16,348.1,464.07,348.1,465.16z" />
		</g>
	</g>
</g>
</svg>
